G04 #@! TF.GenerationSoftware,KiCad,Pcbnew,(5.0.1-3-g963ef8bb5)*
G04 #@! TF.CreationDate,2019-07-11T22:25:35+01:00*
G04 #@! TF.ProjectId,KatanaSwitch,4B6174616E615377697463682E6B6963,rev?*
G04 #@! TF.SameCoordinates,Original*
G04 #@! TF.FileFunction,Copper,L2,Bot,Signal*
G04 #@! TF.FilePolarity,Positive*
%FSLAX46Y46*%
G04 Gerber Fmt 4.6, Leading zero omitted, Abs format (unit mm)*
G04 Created by KiCad (PCBNEW (5.0.1-3-g963ef8bb5)) date Thursday, 11 July 2019 at 22:25:35*
%MOMM*%
%LPD*%
G01*
G04 APERTURE LIST*
G04 #@! TA.AperFunction,ComponentPad*
%ADD10C,4.000000*%
G04 #@! TD*
G04 #@! TA.AperFunction,ComponentPad*
%ADD11R,1.600000X1.600000*%
G04 #@! TD*
G04 #@! TA.AperFunction,ComponentPad*
%ADD12O,1.600000X1.600000*%
G04 #@! TD*
G04 #@! TA.AperFunction,ComponentPad*
%ADD13R,2.999740X2.999740*%
G04 #@! TD*
G04 #@! TA.AperFunction,ComponentPad*
%ADD14C,2.999740*%
G04 #@! TD*
G04 #@! TA.AperFunction,ComponentPad*
%ADD15R,1.600000X2.400000*%
G04 #@! TD*
G04 #@! TA.AperFunction,ComponentPad*
%ADD16O,1.600000X2.400000*%
G04 #@! TD*
G04 #@! TA.AperFunction,ComponentPad*
%ADD17R,1.800000X1.800000*%
G04 #@! TD*
G04 #@! TA.AperFunction,ComponentPad*
%ADD18C,1.800000*%
G04 #@! TD*
G04 #@! TA.AperFunction,ComponentPad*
%ADD19C,1.600000*%
G04 #@! TD*
G04 #@! TA.AperFunction,Conductor*
%ADD20C,0.254000*%
G04 #@! TD*
G04 APERTURE END LIST*
D10*
G04 #@! TO.P,REF\002A\002A,1*
G04 #@! TO.N,N/C*
X125095000Y-99060000D03*
G04 #@! TD*
D11*
G04 #@! TO.P,A1,1*
G04 #@! TO.N,Net-(A1-Pad1)*
X132715000Y-115570000D03*
D12*
G04 #@! TO.P,A1,17*
G04 #@! TO.N,Net-(A1-Pad17)*
X165735000Y-100330000D03*
G04 #@! TO.P,A1,2*
G04 #@! TO.N,Net-(A1-Pad2)*
X135255000Y-115570000D03*
G04 #@! TO.P,A1,18*
G04 #@! TO.N,Net-(A1-Pad18)*
X163195000Y-100330000D03*
G04 #@! TO.P,A1,3*
G04 #@! TO.N,Net-(A1-Pad3)*
X137795000Y-115570000D03*
G04 #@! TO.P,A1,19*
G04 #@! TO.N,CH4*
X160655000Y-100330000D03*
G04 #@! TO.P,A1,4*
G04 #@! TO.N,GND*
X140335000Y-115570000D03*
G04 #@! TO.P,A1,20*
G04 #@! TO.N,TIP*
X158115000Y-100330000D03*
G04 #@! TO.P,A1,5*
G04 #@! TO.N,CH1_LED*
X142875000Y-115570000D03*
G04 #@! TO.P,A1,21*
G04 #@! TO.N,RING*
X155575000Y-100330000D03*
G04 #@! TO.P,A1,6*
G04 #@! TO.N,CH1*
X145415000Y-115570000D03*
G04 #@! TO.P,A1,22*
G04 #@! TO.N,Net-(A1-Pad22)*
X153035000Y-100330000D03*
G04 #@! TO.P,A1,7*
G04 #@! TO.N,Net-(A1-Pad7)*
X147955000Y-115570000D03*
G04 #@! TO.P,A1,23*
G04 #@! TO.N,CH3*
X150495000Y-100330000D03*
G04 #@! TO.P,A1,8*
G04 #@! TO.N,Net-(A1-Pad8)*
X150495000Y-115570000D03*
G04 #@! TO.P,A1,24*
G04 #@! TO.N,CH3_LED*
X147955000Y-100330000D03*
G04 #@! TO.P,A1,9*
G04 #@! TO.N,Net-(A1-Pad9)*
X153035000Y-115570000D03*
G04 #@! TO.P,A1,25*
G04 #@! TO.N,Net-(A1-Pad25)*
X145415000Y-100330000D03*
G04 #@! TO.P,A1,10*
G04 #@! TO.N,Net-(A1-Pad10)*
X155575000Y-115570000D03*
G04 #@! TO.P,A1,26*
G04 #@! TO.N,Net-(A1-Pad26)*
X142875000Y-100330000D03*
G04 #@! TO.P,A1,11*
G04 #@! TO.N,Net-(A1-Pad11)*
X158115000Y-115570000D03*
G04 #@! TO.P,A1,27*
G04 #@! TO.N,Net-(A1-Pad27)*
X140335000Y-100330000D03*
G04 #@! TO.P,A1,12*
G04 #@! TO.N,Net-(A1-Pad12)*
X160655000Y-115570000D03*
G04 #@! TO.P,A1,28*
G04 #@! TO.N,Net-(A1-Pad28)*
X137795000Y-100330000D03*
G04 #@! TO.P,A1,13*
G04 #@! TO.N,Net-(A1-Pad13)*
X163195000Y-115570000D03*
G04 #@! TO.P,A1,29*
G04 #@! TO.N,GND*
X135255000Y-100330000D03*
G04 #@! TO.P,A1,14*
G04 #@! TO.N,CH2*
X165735000Y-115570000D03*
G04 #@! TO.P,A1,30*
G04 #@! TO.N,+9V*
X132715000Y-100330000D03*
G04 #@! TO.P,A1,15*
G04 #@! TO.N,CH2_LED*
X168275000Y-115570000D03*
G04 #@! TO.P,A1,16*
G04 #@! TO.N,CH4_LED*
X168275000Y-100330000D03*
G04 #@! TD*
D10*
G04 #@! TO.P,REF\002A\002A,1*
G04 #@! TO.N,N/C*
X178435000Y-100330000D03*
G04 #@! TD*
D13*
G04 #@! TO.P,BT1,1*
G04 #@! TO.N,+9V*
X132080000Y-86360000D03*
D14*
G04 #@! TO.P,BT1,2*
G04 #@! TO.N,GND*
X135890000Y-86360000D03*
G04 #@! TD*
D15*
G04 #@! TO.P,U1,1*
G04 #@! TO.N,Net-(R6-Pad1)*
X147320000Y-93980000D03*
D16*
G04 #@! TO.P,U1,5*
G04 #@! TO.N,Net-(J1-PadS)*
X154940000Y-86360000D03*
G04 #@! TO.P,U1,2*
G04 #@! TO.N,GND*
X149860000Y-93980000D03*
G04 #@! TO.P,U1,6*
G04 #@! TO.N,Net-(J1-PadT)*
X152400000Y-86360000D03*
G04 #@! TO.P,U1,3*
G04 #@! TO.N,GND*
X152400000Y-93980000D03*
G04 #@! TO.P,U1,7*
G04 #@! TO.N,Net-(J1-PadR)*
X149860000Y-86360000D03*
G04 #@! TO.P,U1,4*
G04 #@! TO.N,Net-(R5-Pad1)*
X154940000Y-93980000D03*
G04 #@! TO.P,U1,8*
G04 #@! TO.N,Net-(J1-PadS)*
X147320000Y-86360000D03*
G04 #@! TD*
D17*
G04 #@! TO.P,D1,1*
G04 #@! TO.N,GND*
X118110000Y-106680000D03*
D18*
G04 #@! TO.P,D1,2*
G04 #@! TO.N,Net-(D1-Pad2)*
X118110000Y-104140000D03*
G04 #@! TD*
D17*
G04 #@! TO.P,D2,1*
G04 #@! TO.N,GND*
X184785000Y-106680000D03*
D18*
G04 #@! TO.P,D2,2*
G04 #@! TO.N,Net-(D2-Pad2)*
X184785000Y-104140000D03*
G04 #@! TD*
G04 #@! TO.P,D3,2*
G04 #@! TO.N,Net-(D3-Pad2)*
X118110000Y-86360000D03*
D17*
G04 #@! TO.P,D3,1*
G04 #@! TO.N,GND*
X118110000Y-88900000D03*
G04 #@! TD*
D18*
G04 #@! TO.P,D4,2*
G04 #@! TO.N,Net-(D4-Pad2)*
X184785000Y-86360000D03*
D17*
G04 #@! TO.P,D4,1*
G04 #@! TO.N,GND*
X184785000Y-88900000D03*
G04 #@! TD*
D13*
G04 #@! TO.P,J1,T*
G04 #@! TO.N,Net-(J1-PadT)*
X163830000Y-86360000D03*
D14*
G04 #@! TO.P,J1,R*
G04 #@! TO.N,Net-(J1-PadR)*
X167640000Y-86360000D03*
G04 #@! TO.P,J1,S*
G04 #@! TO.N,Net-(J1-PadS)*
X171450000Y-86360000D03*
G04 #@! TD*
G04 #@! TO.P,SW1,1*
G04 #@! TO.N,CH1*
X118745000Y-111760000D03*
G04 #@! TO.P,SW1,2*
G04 #@! TO.N,GND*
X118745000Y-115570000D03*
G04 #@! TD*
G04 #@! TO.P,SW2,2*
G04 #@! TO.N,GND*
X184785000Y-115570000D03*
G04 #@! TO.P,SW2,1*
G04 #@! TO.N,CH2*
X184785000Y-111760000D03*
G04 #@! TD*
G04 #@! TO.P,SW3,1*
G04 #@! TO.N,CH3*
X118745000Y-97155000D03*
G04 #@! TO.P,SW3,2*
G04 #@! TO.N,GND*
X118745000Y-93345000D03*
G04 #@! TD*
G04 #@! TO.P,SW4,2*
G04 #@! TO.N,GND*
X184785000Y-97790000D03*
G04 #@! TO.P,SW4,1*
G04 #@! TO.N,CH4*
X184785000Y-93980000D03*
G04 #@! TD*
D19*
G04 #@! TO.P,R1,1*
G04 #@! TO.N,Net-(D1-Pad2)*
X124460000Y-105410000D03*
D12*
G04 #@! TO.P,R1,2*
G04 #@! TO.N,CH1_LED*
X124460000Y-115570000D03*
G04 #@! TD*
G04 #@! TO.P,R2,2*
G04 #@! TO.N,CH2_LED*
X177800000Y-115570000D03*
D19*
G04 #@! TO.P,R2,1*
G04 #@! TO.N,Net-(D2-Pad2)*
X177800000Y-105410000D03*
G04 #@! TD*
D12*
G04 #@! TO.P,R3,2*
G04 #@! TO.N,CH3_LED*
X124460000Y-95250000D03*
D19*
G04 #@! TO.P,R3,1*
G04 #@! TO.N,Net-(D3-Pad2)*
X124460000Y-85090000D03*
G04 #@! TD*
G04 #@! TO.P,R4,1*
G04 #@! TO.N,Net-(D4-Pad2)*
X177800000Y-85090000D03*
D12*
G04 #@! TO.P,R4,2*
G04 #@! TO.N,CH4_LED*
X177800000Y-95250000D03*
G04 #@! TD*
D19*
G04 #@! TO.P,R5,1*
G04 #@! TO.N,Net-(R5-Pad1)*
X161290000Y-93980000D03*
D12*
G04 #@! TO.P,R5,2*
G04 #@! TO.N,TIP*
X171450000Y-93980000D03*
G04 #@! TD*
G04 #@! TO.P,R6,2*
G04 #@! TO.N,RING*
X132080000Y-93980000D03*
D19*
G04 #@! TO.P,R6,1*
G04 #@! TO.N,Net-(R6-Pad1)*
X142240000Y-93980000D03*
G04 #@! TD*
D20*
G04 #@! TO.N,GND*
G36*
X189103000Y-117983000D02*
X114427000Y-117983000D01*
X114427000Y-117083877D01*
X117410728Y-117083877D01*
X117570495Y-117402632D01*
X118361217Y-117712595D01*
X119210366Y-117696367D01*
X119919505Y-117402632D01*
X120079272Y-117083877D01*
X183450728Y-117083877D01*
X183610495Y-117402632D01*
X184401217Y-117712595D01*
X185250366Y-117696367D01*
X185959505Y-117402632D01*
X186119272Y-117083877D01*
X184785000Y-115749605D01*
X183450728Y-117083877D01*
X120079272Y-117083877D01*
X118745000Y-115749605D01*
X117410728Y-117083877D01*
X114427000Y-117083877D01*
X114427000Y-115186217D01*
X116602405Y-115186217D01*
X116618633Y-116035366D01*
X116912368Y-116744505D01*
X117231123Y-116904272D01*
X118565395Y-115570000D01*
X118924605Y-115570000D01*
X120258877Y-116904272D01*
X120577632Y-116744505D01*
X120887595Y-115953783D01*
X120880261Y-115570000D01*
X122996887Y-115570000D01*
X123108260Y-116129909D01*
X123425423Y-116604577D01*
X123900091Y-116921740D01*
X124318667Y-117005000D01*
X124601333Y-117005000D01*
X125019909Y-116921740D01*
X125494577Y-116604577D01*
X125811740Y-116129909D01*
X125923113Y-115570000D01*
X125811740Y-115010091D01*
X125651317Y-114770000D01*
X131267560Y-114770000D01*
X131267560Y-116370000D01*
X131316843Y-116617765D01*
X131457191Y-116827809D01*
X131667235Y-116968157D01*
X131915000Y-117017440D01*
X133515000Y-117017440D01*
X133762765Y-116968157D01*
X133972809Y-116827809D01*
X134113157Y-116617765D01*
X134139785Y-116483894D01*
X134220423Y-116604577D01*
X134695091Y-116921740D01*
X135113667Y-117005000D01*
X135396333Y-117005000D01*
X135814909Y-116921740D01*
X136289577Y-116604577D01*
X136525000Y-116252242D01*
X136760423Y-116604577D01*
X137235091Y-116921740D01*
X137653667Y-117005000D01*
X137936333Y-117005000D01*
X138354909Y-116921740D01*
X138829577Y-116604577D01*
X139085947Y-116220892D01*
X139182611Y-116425134D01*
X139597577Y-116801041D01*
X139985961Y-116961904D01*
X140208000Y-116839915D01*
X140208000Y-115697000D01*
X140188000Y-115697000D01*
X140188000Y-115443000D01*
X140208000Y-115443000D01*
X140208000Y-114300085D01*
X140462000Y-114300085D01*
X140462000Y-115443000D01*
X140482000Y-115443000D01*
X140482000Y-115697000D01*
X140462000Y-115697000D01*
X140462000Y-116839915D01*
X140684039Y-116961904D01*
X141072423Y-116801041D01*
X141487389Y-116425134D01*
X141584053Y-116220892D01*
X141840423Y-116604577D01*
X142315091Y-116921740D01*
X142733667Y-117005000D01*
X143016333Y-117005000D01*
X143434909Y-116921740D01*
X143909577Y-116604577D01*
X144145000Y-116252242D01*
X144380423Y-116604577D01*
X144855091Y-116921740D01*
X145273667Y-117005000D01*
X145556333Y-117005000D01*
X145974909Y-116921740D01*
X146449577Y-116604577D01*
X146685000Y-116252242D01*
X146920423Y-116604577D01*
X147395091Y-116921740D01*
X147813667Y-117005000D01*
X148096333Y-117005000D01*
X148514909Y-116921740D01*
X148989577Y-116604577D01*
X149225000Y-116252242D01*
X149460423Y-116604577D01*
X149935091Y-116921740D01*
X150353667Y-117005000D01*
X150636333Y-117005000D01*
X151054909Y-116921740D01*
X151529577Y-116604577D01*
X151765000Y-116252242D01*
X152000423Y-116604577D01*
X152475091Y-116921740D01*
X152893667Y-117005000D01*
X153176333Y-117005000D01*
X153594909Y-116921740D01*
X154069577Y-116604577D01*
X154305000Y-116252242D01*
X154540423Y-116604577D01*
X155015091Y-116921740D01*
X155433667Y-117005000D01*
X155716333Y-117005000D01*
X156134909Y-116921740D01*
X156609577Y-116604577D01*
X156845000Y-116252242D01*
X157080423Y-116604577D01*
X157555091Y-116921740D01*
X157973667Y-117005000D01*
X158256333Y-117005000D01*
X158674909Y-116921740D01*
X159149577Y-116604577D01*
X159385000Y-116252242D01*
X159620423Y-116604577D01*
X160095091Y-116921740D01*
X160513667Y-117005000D01*
X160796333Y-117005000D01*
X161214909Y-116921740D01*
X161689577Y-116604577D01*
X161925000Y-116252242D01*
X162160423Y-116604577D01*
X162635091Y-116921740D01*
X163053667Y-117005000D01*
X163336333Y-117005000D01*
X163754909Y-116921740D01*
X164229577Y-116604577D01*
X164465000Y-116252242D01*
X164700423Y-116604577D01*
X165175091Y-116921740D01*
X165593667Y-117005000D01*
X165876333Y-117005000D01*
X166294909Y-116921740D01*
X166769577Y-116604577D01*
X167005000Y-116252242D01*
X167240423Y-116604577D01*
X167715091Y-116921740D01*
X168133667Y-117005000D01*
X168416333Y-117005000D01*
X168834909Y-116921740D01*
X169309577Y-116604577D01*
X169626740Y-116129909D01*
X169738113Y-115570000D01*
X176336887Y-115570000D01*
X176448260Y-116129909D01*
X176765423Y-116604577D01*
X177240091Y-116921740D01*
X177658667Y-117005000D01*
X177941333Y-117005000D01*
X178359909Y-116921740D01*
X178834577Y-116604577D01*
X179151740Y-116129909D01*
X179263113Y-115570000D01*
X179186774Y-115186217D01*
X182642405Y-115186217D01*
X182658633Y-116035366D01*
X182952368Y-116744505D01*
X183271123Y-116904272D01*
X184605395Y-115570000D01*
X184964605Y-115570000D01*
X186298877Y-116904272D01*
X186617632Y-116744505D01*
X186927595Y-115953783D01*
X186911367Y-115104634D01*
X186617632Y-114395495D01*
X186298877Y-114235728D01*
X184964605Y-115570000D01*
X184605395Y-115570000D01*
X183271123Y-114235728D01*
X182952368Y-114395495D01*
X182642405Y-115186217D01*
X179186774Y-115186217D01*
X179151740Y-115010091D01*
X178834577Y-114535423D01*
X178359909Y-114218260D01*
X177941333Y-114135000D01*
X177658667Y-114135000D01*
X177240091Y-114218260D01*
X176765423Y-114535423D01*
X176448260Y-115010091D01*
X176336887Y-115570000D01*
X169738113Y-115570000D01*
X169626740Y-115010091D01*
X169309577Y-114535423D01*
X168834909Y-114218260D01*
X168416333Y-114135000D01*
X168133667Y-114135000D01*
X167715091Y-114218260D01*
X167240423Y-114535423D01*
X167005000Y-114887758D01*
X166769577Y-114535423D01*
X166294909Y-114218260D01*
X165876333Y-114135000D01*
X165593667Y-114135000D01*
X165175091Y-114218260D01*
X164700423Y-114535423D01*
X164465000Y-114887758D01*
X164229577Y-114535423D01*
X163754909Y-114218260D01*
X163336333Y-114135000D01*
X163053667Y-114135000D01*
X162635091Y-114218260D01*
X162160423Y-114535423D01*
X161925000Y-114887758D01*
X161689577Y-114535423D01*
X161214909Y-114218260D01*
X160796333Y-114135000D01*
X160513667Y-114135000D01*
X160095091Y-114218260D01*
X159620423Y-114535423D01*
X159385000Y-114887758D01*
X159149577Y-114535423D01*
X158674909Y-114218260D01*
X158256333Y-114135000D01*
X157973667Y-114135000D01*
X157555091Y-114218260D01*
X157080423Y-114535423D01*
X156845000Y-114887758D01*
X156609577Y-114535423D01*
X156134909Y-114218260D01*
X155716333Y-114135000D01*
X155433667Y-114135000D01*
X155015091Y-114218260D01*
X154540423Y-114535423D01*
X154305000Y-114887758D01*
X154069577Y-114535423D01*
X153594909Y-114218260D01*
X153176333Y-114135000D01*
X152893667Y-114135000D01*
X152475091Y-114218260D01*
X152000423Y-114535423D01*
X151765000Y-114887758D01*
X151529577Y-114535423D01*
X151054909Y-114218260D01*
X150636333Y-114135000D01*
X150353667Y-114135000D01*
X149935091Y-114218260D01*
X149460423Y-114535423D01*
X149225000Y-114887758D01*
X148989577Y-114535423D01*
X148514909Y-114218260D01*
X148096333Y-114135000D01*
X147813667Y-114135000D01*
X147395091Y-114218260D01*
X146920423Y-114535423D01*
X146685000Y-114887758D01*
X146449577Y-114535423D01*
X145974909Y-114218260D01*
X145556333Y-114135000D01*
X145273667Y-114135000D01*
X144855091Y-114218260D01*
X144380423Y-114535423D01*
X144145000Y-114887758D01*
X143909577Y-114535423D01*
X143434909Y-114218260D01*
X143016333Y-114135000D01*
X142733667Y-114135000D01*
X142315091Y-114218260D01*
X141840423Y-114535423D01*
X141584053Y-114919108D01*
X141487389Y-114714866D01*
X141072423Y-114338959D01*
X140684039Y-114178096D01*
X140462000Y-114300085D01*
X140208000Y-114300085D01*
X139985961Y-114178096D01*
X139597577Y-114338959D01*
X139182611Y-114714866D01*
X139085947Y-114919108D01*
X138829577Y-114535423D01*
X138354909Y-114218260D01*
X137936333Y-114135000D01*
X137653667Y-114135000D01*
X137235091Y-114218260D01*
X136760423Y-114535423D01*
X136525000Y-114887758D01*
X136289577Y-114535423D01*
X135814909Y-114218260D01*
X135396333Y-114135000D01*
X135113667Y-114135000D01*
X134695091Y-114218260D01*
X134220423Y-114535423D01*
X134139785Y-114656106D01*
X134113157Y-114522235D01*
X133972809Y-114312191D01*
X133762765Y-114171843D01*
X133515000Y-114122560D01*
X131915000Y-114122560D01*
X131667235Y-114171843D01*
X131457191Y-114312191D01*
X131316843Y-114522235D01*
X131267560Y-114770000D01*
X125651317Y-114770000D01*
X125494577Y-114535423D01*
X125019909Y-114218260D01*
X124601333Y-114135000D01*
X124318667Y-114135000D01*
X123900091Y-114218260D01*
X123425423Y-114535423D01*
X123108260Y-115010091D01*
X122996887Y-115570000D01*
X120880261Y-115570000D01*
X120871367Y-115104634D01*
X120577632Y-114395495D01*
X120258877Y-114235728D01*
X118924605Y-115570000D01*
X118565395Y-115570000D01*
X117231123Y-114235728D01*
X116912368Y-114395495D01*
X116602405Y-115186217D01*
X114427000Y-115186217D01*
X114427000Y-111335348D01*
X116610130Y-111335348D01*
X116610130Y-112184652D01*
X116935144Y-112969307D01*
X117535693Y-113569856D01*
X117755299Y-113660820D01*
X117570495Y-113737368D01*
X117410728Y-114056123D01*
X118745000Y-115390395D01*
X120079272Y-114056123D01*
X119919505Y-113737368D01*
X119729609Y-113662929D01*
X119954307Y-113569856D01*
X120554856Y-112969307D01*
X120879870Y-112184652D01*
X120879870Y-111335348D01*
X182650130Y-111335348D01*
X182650130Y-112184652D01*
X182975144Y-112969307D01*
X183575693Y-113569856D01*
X183795299Y-113660820D01*
X183610495Y-113737368D01*
X183450728Y-114056123D01*
X184785000Y-115390395D01*
X186119272Y-114056123D01*
X185959505Y-113737368D01*
X185769609Y-113662929D01*
X185994307Y-113569856D01*
X186594856Y-112969307D01*
X186919870Y-112184652D01*
X186919870Y-111335348D01*
X186594856Y-110550693D01*
X185994307Y-109950144D01*
X185209652Y-109625130D01*
X184360348Y-109625130D01*
X183575693Y-109950144D01*
X182975144Y-110550693D01*
X182650130Y-111335348D01*
X120879870Y-111335348D01*
X120554856Y-110550693D01*
X119954307Y-109950144D01*
X119169652Y-109625130D01*
X118320348Y-109625130D01*
X117535693Y-109950144D01*
X116935144Y-110550693D01*
X116610130Y-111335348D01*
X114427000Y-111335348D01*
X114427000Y-106965750D01*
X116575000Y-106965750D01*
X116575000Y-107706309D01*
X116671673Y-107939698D01*
X116850301Y-108118327D01*
X117083690Y-108215000D01*
X117824250Y-108215000D01*
X117983000Y-108056250D01*
X117983000Y-106807000D01*
X118237000Y-106807000D01*
X118237000Y-108056250D01*
X118395750Y-108215000D01*
X119136310Y-108215000D01*
X119369699Y-108118327D01*
X119548327Y-107939698D01*
X119645000Y-107706309D01*
X119645000Y-106965750D01*
X183250000Y-106965750D01*
X183250000Y-107706309D01*
X183346673Y-107939698D01*
X183525301Y-108118327D01*
X183758690Y-108215000D01*
X184499250Y-108215000D01*
X184658000Y-108056250D01*
X184658000Y-106807000D01*
X184912000Y-106807000D01*
X184912000Y-108056250D01*
X185070750Y-108215000D01*
X185811310Y-108215000D01*
X186044699Y-108118327D01*
X186223327Y-107939698D01*
X186320000Y-107706309D01*
X186320000Y-106965750D01*
X186161250Y-106807000D01*
X184912000Y-106807000D01*
X184658000Y-106807000D01*
X183408750Y-106807000D01*
X183250000Y-106965750D01*
X119645000Y-106965750D01*
X119486250Y-106807000D01*
X118237000Y-106807000D01*
X117983000Y-106807000D01*
X116733750Y-106807000D01*
X116575000Y-106965750D01*
X114427000Y-106965750D01*
X114427000Y-103834670D01*
X116575000Y-103834670D01*
X116575000Y-104445330D01*
X116808690Y-105009507D01*
X116985044Y-105185861D01*
X116850301Y-105241673D01*
X116671673Y-105420302D01*
X116575000Y-105653691D01*
X116575000Y-106394250D01*
X116733750Y-106553000D01*
X117983000Y-106553000D01*
X117983000Y-106533000D01*
X118237000Y-106533000D01*
X118237000Y-106553000D01*
X119486250Y-106553000D01*
X119645000Y-106394250D01*
X119645000Y-105653691D01*
X119548327Y-105420302D01*
X119369699Y-105241673D01*
X119234956Y-105185861D01*
X119296256Y-105124561D01*
X123025000Y-105124561D01*
X123025000Y-105695439D01*
X123243466Y-106222862D01*
X123647138Y-106626534D01*
X124174561Y-106845000D01*
X124745439Y-106845000D01*
X125272862Y-106626534D01*
X125676534Y-106222862D01*
X125895000Y-105695439D01*
X125895000Y-105124561D01*
X176365000Y-105124561D01*
X176365000Y-105695439D01*
X176583466Y-106222862D01*
X176987138Y-106626534D01*
X177514561Y-106845000D01*
X178085439Y-106845000D01*
X178612862Y-106626534D01*
X179016534Y-106222862D01*
X179235000Y-105695439D01*
X179235000Y-105124561D01*
X179016534Y-104597138D01*
X178612862Y-104193466D01*
X178085439Y-103975000D01*
X177514561Y-103975000D01*
X176987138Y-104193466D01*
X176583466Y-104597138D01*
X176365000Y-105124561D01*
X125895000Y-105124561D01*
X125676534Y-104597138D01*
X125272862Y-104193466D01*
X124745439Y-103975000D01*
X124174561Y-103975000D01*
X123647138Y-104193466D01*
X123243466Y-104597138D01*
X123025000Y-105124561D01*
X119296256Y-105124561D01*
X119411310Y-105009507D01*
X119645000Y-104445330D01*
X119645000Y-103834670D01*
X183250000Y-103834670D01*
X183250000Y-104445330D01*
X183483690Y-105009507D01*
X183660044Y-105185861D01*
X183525301Y-105241673D01*
X183346673Y-105420302D01*
X183250000Y-105653691D01*
X183250000Y-106394250D01*
X183408750Y-106553000D01*
X184658000Y-106553000D01*
X184658000Y-106533000D01*
X184912000Y-106533000D01*
X184912000Y-106553000D01*
X186161250Y-106553000D01*
X186320000Y-106394250D01*
X186320000Y-105653691D01*
X186223327Y-105420302D01*
X186044699Y-105241673D01*
X185909956Y-105185861D01*
X186086310Y-105009507D01*
X186320000Y-104445330D01*
X186320000Y-103834670D01*
X186086310Y-103270493D01*
X185654507Y-102838690D01*
X185090330Y-102605000D01*
X184479670Y-102605000D01*
X183915493Y-102838690D01*
X183483690Y-103270493D01*
X183250000Y-103834670D01*
X119645000Y-103834670D01*
X119411310Y-103270493D01*
X118979507Y-102838690D01*
X118415330Y-102605000D01*
X117804670Y-102605000D01*
X117240493Y-102838690D01*
X116808690Y-103270493D01*
X116575000Y-103834670D01*
X114427000Y-103834670D01*
X114427000Y-96730348D01*
X116610130Y-96730348D01*
X116610130Y-97579652D01*
X116935144Y-98364307D01*
X117535693Y-98964856D01*
X118320348Y-99289870D01*
X119169652Y-99289870D01*
X119954307Y-98964856D01*
X120383297Y-98535866D01*
X122460000Y-98535866D01*
X122460000Y-99584134D01*
X122861155Y-100552608D01*
X123602392Y-101293845D01*
X124570866Y-101695000D01*
X125619134Y-101695000D01*
X126587608Y-101293845D01*
X127328845Y-100552608D01*
X127421052Y-100330000D01*
X131251887Y-100330000D01*
X131363260Y-100889909D01*
X131680423Y-101364577D01*
X132155091Y-101681740D01*
X132573667Y-101765000D01*
X132856333Y-101765000D01*
X133274909Y-101681740D01*
X133749577Y-101364577D01*
X134005947Y-100980892D01*
X134102611Y-101185134D01*
X134517577Y-101561041D01*
X134905961Y-101721904D01*
X135128000Y-101599915D01*
X135128000Y-100457000D01*
X135108000Y-100457000D01*
X135108000Y-100203000D01*
X135128000Y-100203000D01*
X135128000Y-99060085D01*
X135382000Y-99060085D01*
X135382000Y-100203000D01*
X135402000Y-100203000D01*
X135402000Y-100457000D01*
X135382000Y-100457000D01*
X135382000Y-101599915D01*
X135604039Y-101721904D01*
X135992423Y-101561041D01*
X136407389Y-101185134D01*
X136504053Y-100980892D01*
X136760423Y-101364577D01*
X137235091Y-101681740D01*
X137653667Y-101765000D01*
X137936333Y-101765000D01*
X138354909Y-101681740D01*
X138829577Y-101364577D01*
X139065000Y-101012242D01*
X139300423Y-101364577D01*
X139775091Y-101681740D01*
X140193667Y-101765000D01*
X140476333Y-101765000D01*
X140894909Y-101681740D01*
X141369577Y-101364577D01*
X141605000Y-101012242D01*
X141840423Y-101364577D01*
X142315091Y-101681740D01*
X142733667Y-101765000D01*
X143016333Y-101765000D01*
X143434909Y-101681740D01*
X143909577Y-101364577D01*
X144145000Y-101012242D01*
X144380423Y-101364577D01*
X144855091Y-101681740D01*
X145273667Y-101765000D01*
X145556333Y-101765000D01*
X145974909Y-101681740D01*
X146449577Y-101364577D01*
X146685000Y-101012242D01*
X146920423Y-101364577D01*
X147395091Y-101681740D01*
X147813667Y-101765000D01*
X148096333Y-101765000D01*
X148514909Y-101681740D01*
X148989577Y-101364577D01*
X149225000Y-101012242D01*
X149460423Y-101364577D01*
X149935091Y-101681740D01*
X150353667Y-101765000D01*
X150636333Y-101765000D01*
X151054909Y-101681740D01*
X151529577Y-101364577D01*
X151765000Y-101012242D01*
X152000423Y-101364577D01*
X152475091Y-101681740D01*
X152893667Y-101765000D01*
X153176333Y-101765000D01*
X153594909Y-101681740D01*
X154069577Y-101364577D01*
X154305000Y-101012242D01*
X154540423Y-101364577D01*
X155015091Y-101681740D01*
X155433667Y-101765000D01*
X155716333Y-101765000D01*
X156134909Y-101681740D01*
X156609577Y-101364577D01*
X156845000Y-101012242D01*
X157080423Y-101364577D01*
X157555091Y-101681740D01*
X157973667Y-101765000D01*
X158256333Y-101765000D01*
X158674909Y-101681740D01*
X159149577Y-101364577D01*
X159385000Y-101012242D01*
X159620423Y-101364577D01*
X160095091Y-101681740D01*
X160513667Y-101765000D01*
X160796333Y-101765000D01*
X161214909Y-101681740D01*
X161689577Y-101364577D01*
X161925000Y-101012242D01*
X162160423Y-101364577D01*
X162635091Y-101681740D01*
X163053667Y-101765000D01*
X163336333Y-101765000D01*
X163754909Y-101681740D01*
X164229577Y-101364577D01*
X164465000Y-101012242D01*
X164700423Y-101364577D01*
X165175091Y-101681740D01*
X165593667Y-101765000D01*
X165876333Y-101765000D01*
X166294909Y-101681740D01*
X166769577Y-101364577D01*
X167005000Y-101012242D01*
X167240423Y-101364577D01*
X167715091Y-101681740D01*
X168133667Y-101765000D01*
X168416333Y-101765000D01*
X168834909Y-101681740D01*
X169309577Y-101364577D01*
X169626740Y-100889909D01*
X169738113Y-100330000D01*
X169633857Y-99805866D01*
X175800000Y-99805866D01*
X175800000Y-100854134D01*
X176201155Y-101822608D01*
X176942392Y-102563845D01*
X177910866Y-102965000D01*
X178959134Y-102965000D01*
X179927608Y-102563845D01*
X180668845Y-101822608D01*
X181070000Y-100854134D01*
X181070000Y-99805866D01*
X180862070Y-99303877D01*
X183450728Y-99303877D01*
X183610495Y-99622632D01*
X184401217Y-99932595D01*
X185250366Y-99916367D01*
X185959505Y-99622632D01*
X186119272Y-99303877D01*
X184785000Y-97969605D01*
X183450728Y-99303877D01*
X180862070Y-99303877D01*
X180668845Y-98837392D01*
X179927608Y-98096155D01*
X178959134Y-97695000D01*
X177910866Y-97695000D01*
X176942392Y-98096155D01*
X176201155Y-98837392D01*
X175800000Y-99805866D01*
X169633857Y-99805866D01*
X169626740Y-99770091D01*
X169309577Y-99295423D01*
X168834909Y-98978260D01*
X168416333Y-98895000D01*
X168133667Y-98895000D01*
X167715091Y-98978260D01*
X167240423Y-99295423D01*
X167005000Y-99647758D01*
X166769577Y-99295423D01*
X166294909Y-98978260D01*
X165876333Y-98895000D01*
X165593667Y-98895000D01*
X165175091Y-98978260D01*
X164700423Y-99295423D01*
X164465000Y-99647758D01*
X164229577Y-99295423D01*
X163754909Y-98978260D01*
X163336333Y-98895000D01*
X163053667Y-98895000D01*
X162635091Y-98978260D01*
X162160423Y-99295423D01*
X161925000Y-99647758D01*
X161689577Y-99295423D01*
X161214909Y-98978260D01*
X160796333Y-98895000D01*
X160513667Y-98895000D01*
X160095091Y-98978260D01*
X159620423Y-99295423D01*
X159385000Y-99647758D01*
X159149577Y-99295423D01*
X158674909Y-98978260D01*
X158256333Y-98895000D01*
X157973667Y-98895000D01*
X157555091Y-98978260D01*
X157080423Y-99295423D01*
X156845000Y-99647758D01*
X156609577Y-99295423D01*
X156134909Y-98978260D01*
X155716333Y-98895000D01*
X155433667Y-98895000D01*
X155015091Y-98978260D01*
X154540423Y-99295423D01*
X154305000Y-99647758D01*
X154069577Y-99295423D01*
X153594909Y-98978260D01*
X153176333Y-98895000D01*
X152893667Y-98895000D01*
X152475091Y-98978260D01*
X152000423Y-99295423D01*
X151765000Y-99647758D01*
X151529577Y-99295423D01*
X151054909Y-98978260D01*
X150636333Y-98895000D01*
X150353667Y-98895000D01*
X149935091Y-98978260D01*
X149460423Y-99295423D01*
X149225000Y-99647758D01*
X148989577Y-99295423D01*
X148514909Y-98978260D01*
X148096333Y-98895000D01*
X147813667Y-98895000D01*
X147395091Y-98978260D01*
X146920423Y-99295423D01*
X146685000Y-99647758D01*
X146449577Y-99295423D01*
X145974909Y-98978260D01*
X145556333Y-98895000D01*
X145273667Y-98895000D01*
X144855091Y-98978260D01*
X144380423Y-99295423D01*
X144145000Y-99647758D01*
X143909577Y-99295423D01*
X143434909Y-98978260D01*
X143016333Y-98895000D01*
X142733667Y-98895000D01*
X142315091Y-98978260D01*
X141840423Y-99295423D01*
X141605000Y-99647758D01*
X141369577Y-99295423D01*
X140894909Y-98978260D01*
X140476333Y-98895000D01*
X140193667Y-98895000D01*
X139775091Y-98978260D01*
X139300423Y-99295423D01*
X139065000Y-99647758D01*
X138829577Y-99295423D01*
X138354909Y-98978260D01*
X137936333Y-98895000D01*
X137653667Y-98895000D01*
X137235091Y-98978260D01*
X136760423Y-99295423D01*
X136504053Y-99679108D01*
X136407389Y-99474866D01*
X135992423Y-99098959D01*
X135604039Y-98938096D01*
X135382000Y-99060085D01*
X135128000Y-99060085D01*
X134905961Y-98938096D01*
X134517577Y-99098959D01*
X134102611Y-99474866D01*
X134005947Y-99679108D01*
X133749577Y-99295423D01*
X133274909Y-98978260D01*
X132856333Y-98895000D01*
X132573667Y-98895000D01*
X132155091Y-98978260D01*
X131680423Y-99295423D01*
X131363260Y-99770091D01*
X131251887Y-100330000D01*
X127421052Y-100330000D01*
X127730000Y-99584134D01*
X127730000Y-98535866D01*
X127328845Y-97567392D01*
X127167670Y-97406217D01*
X182642405Y-97406217D01*
X182658633Y-98255366D01*
X182952368Y-98964505D01*
X183271123Y-99124272D01*
X184605395Y-97790000D01*
X184964605Y-97790000D01*
X186298877Y-99124272D01*
X186617632Y-98964505D01*
X186927595Y-98173783D01*
X186911367Y-97324634D01*
X186617632Y-96615495D01*
X186298877Y-96455728D01*
X184964605Y-97790000D01*
X184605395Y-97790000D01*
X183271123Y-96455728D01*
X182952368Y-96615495D01*
X182642405Y-97406217D01*
X127167670Y-97406217D01*
X126587608Y-96826155D01*
X125619134Y-96425000D01*
X125284419Y-96425000D01*
X125494577Y-96284577D01*
X125811740Y-95809909D01*
X125923113Y-95250000D01*
X125811740Y-94690091D01*
X125494577Y-94215423D01*
X125142242Y-93980000D01*
X130616887Y-93980000D01*
X130728260Y-94539909D01*
X131045423Y-95014577D01*
X131520091Y-95331740D01*
X131938667Y-95415000D01*
X132221333Y-95415000D01*
X132639909Y-95331740D01*
X133114577Y-95014577D01*
X133431740Y-94539909D01*
X133543113Y-93980000D01*
X133486336Y-93694561D01*
X140805000Y-93694561D01*
X140805000Y-94265439D01*
X141023466Y-94792862D01*
X141427138Y-95196534D01*
X141954561Y-95415000D01*
X142525439Y-95415000D01*
X143052862Y-95196534D01*
X143456534Y-94792862D01*
X143675000Y-94265439D01*
X143675000Y-93694561D01*
X143456534Y-93167138D01*
X143069396Y-92780000D01*
X145872560Y-92780000D01*
X145872560Y-95180000D01*
X145921843Y-95427765D01*
X146062191Y-95637809D01*
X146272235Y-95778157D01*
X146520000Y-95827440D01*
X148120000Y-95827440D01*
X148367765Y-95778157D01*
X148577809Y-95637809D01*
X148718157Y-95427765D01*
X148752127Y-95256984D01*
X148935104Y-95484500D01*
X149428181Y-95754367D01*
X149510961Y-95771904D01*
X149733000Y-95649915D01*
X149733000Y-94107000D01*
X149987000Y-94107000D01*
X149987000Y-95649915D01*
X150209039Y-95771904D01*
X150291819Y-95754367D01*
X150784896Y-95484500D01*
X151130000Y-95055393D01*
X151475104Y-95484500D01*
X151968181Y-95754367D01*
X152050961Y-95771904D01*
X152273000Y-95649915D01*
X152273000Y-94107000D01*
X149987000Y-94107000D01*
X149733000Y-94107000D01*
X149713000Y-94107000D01*
X149713000Y-93853000D01*
X149733000Y-93853000D01*
X149733000Y-92310085D01*
X149987000Y-92310085D01*
X149987000Y-93853000D01*
X152273000Y-93853000D01*
X152273000Y-92310085D01*
X152527000Y-92310085D01*
X152527000Y-93853000D01*
X152547000Y-93853000D01*
X152547000Y-94107000D01*
X152527000Y-94107000D01*
X152527000Y-95649915D01*
X152749039Y-95771904D01*
X152831819Y-95754367D01*
X153324896Y-95484500D01*
X153667501Y-95058501D01*
X153905424Y-95414577D01*
X154380092Y-95731740D01*
X154940000Y-95843113D01*
X155499909Y-95731740D01*
X155974577Y-95414577D01*
X156291740Y-94939909D01*
X156375000Y-94521332D01*
X156375000Y-93694561D01*
X159855000Y-93694561D01*
X159855000Y-94265439D01*
X160073466Y-94792862D01*
X160477138Y-95196534D01*
X161004561Y-95415000D01*
X161575439Y-95415000D01*
X162102862Y-95196534D01*
X162506534Y-94792862D01*
X162725000Y-94265439D01*
X162725000Y-93980000D01*
X169986887Y-93980000D01*
X170098260Y-94539909D01*
X170415423Y-95014577D01*
X170890091Y-95331740D01*
X171308667Y-95415000D01*
X171591333Y-95415000D01*
X172009909Y-95331740D01*
X172132241Y-95250000D01*
X176336887Y-95250000D01*
X176448260Y-95809909D01*
X176765423Y-96284577D01*
X177240091Y-96601740D01*
X177658667Y-96685000D01*
X177941333Y-96685000D01*
X178359909Y-96601740D01*
X178834577Y-96284577D01*
X179151740Y-95809909D01*
X179263113Y-95250000D01*
X179151740Y-94690091D01*
X178834577Y-94215423D01*
X178359909Y-93898260D01*
X177941333Y-93815000D01*
X177658667Y-93815000D01*
X177240091Y-93898260D01*
X176765423Y-94215423D01*
X176448260Y-94690091D01*
X176336887Y-95250000D01*
X172132241Y-95250000D01*
X172484577Y-95014577D01*
X172801740Y-94539909D01*
X172913113Y-93980000D01*
X172828645Y-93555348D01*
X182650130Y-93555348D01*
X182650130Y-94404652D01*
X182975144Y-95189307D01*
X183575693Y-95789856D01*
X183795299Y-95880820D01*
X183610495Y-95957368D01*
X183450728Y-96276123D01*
X184785000Y-97610395D01*
X186119272Y-96276123D01*
X185959505Y-95957368D01*
X185769609Y-95882929D01*
X185994307Y-95789856D01*
X186594856Y-95189307D01*
X186919870Y-94404652D01*
X186919870Y-93555348D01*
X186594856Y-92770693D01*
X185994307Y-92170144D01*
X185209652Y-91845130D01*
X184360348Y-91845130D01*
X183575693Y-92170144D01*
X182975144Y-92770693D01*
X182650130Y-93555348D01*
X172828645Y-93555348D01*
X172801740Y-93420091D01*
X172484577Y-92945423D01*
X172009909Y-92628260D01*
X171591333Y-92545000D01*
X171308667Y-92545000D01*
X170890091Y-92628260D01*
X170415423Y-92945423D01*
X170098260Y-93420091D01*
X169986887Y-93980000D01*
X162725000Y-93980000D01*
X162725000Y-93694561D01*
X162506534Y-93167138D01*
X162102862Y-92763466D01*
X161575439Y-92545000D01*
X161004561Y-92545000D01*
X160477138Y-92763466D01*
X160073466Y-93167138D01*
X159855000Y-93694561D01*
X156375000Y-93694561D01*
X156375000Y-93438667D01*
X156291740Y-93020091D01*
X155974576Y-92545423D01*
X155499908Y-92228260D01*
X154940000Y-92116887D01*
X154380091Y-92228260D01*
X153905423Y-92545424D01*
X153667501Y-92901499D01*
X153324896Y-92475500D01*
X152831819Y-92205633D01*
X152749039Y-92188096D01*
X152527000Y-92310085D01*
X152273000Y-92310085D01*
X152050961Y-92188096D01*
X151968181Y-92205633D01*
X151475104Y-92475500D01*
X151130000Y-92904607D01*
X150784896Y-92475500D01*
X150291819Y-92205633D01*
X150209039Y-92188096D01*
X149987000Y-92310085D01*
X149733000Y-92310085D01*
X149510961Y-92188096D01*
X149428181Y-92205633D01*
X148935104Y-92475500D01*
X148752127Y-92703016D01*
X148718157Y-92532235D01*
X148577809Y-92322191D01*
X148367765Y-92181843D01*
X148120000Y-92132560D01*
X146520000Y-92132560D01*
X146272235Y-92181843D01*
X146062191Y-92322191D01*
X145921843Y-92532235D01*
X145872560Y-92780000D01*
X143069396Y-92780000D01*
X143052862Y-92763466D01*
X142525439Y-92545000D01*
X141954561Y-92545000D01*
X141427138Y-92763466D01*
X141023466Y-93167138D01*
X140805000Y-93694561D01*
X133486336Y-93694561D01*
X133431740Y-93420091D01*
X133114577Y-92945423D01*
X132639909Y-92628260D01*
X132221333Y-92545000D01*
X131938667Y-92545000D01*
X131520091Y-92628260D01*
X131045423Y-92945423D01*
X130728260Y-93420091D01*
X130616887Y-93980000D01*
X125142242Y-93980000D01*
X125019909Y-93898260D01*
X124601333Y-93815000D01*
X124318667Y-93815000D01*
X123900091Y-93898260D01*
X123425423Y-94215423D01*
X123108260Y-94690091D01*
X122996887Y-95250000D01*
X123108260Y-95809909D01*
X123425423Y-96284577D01*
X123900091Y-96601740D01*
X124064990Y-96634541D01*
X123602392Y-96826155D01*
X122861155Y-97567392D01*
X122460000Y-98535866D01*
X120383297Y-98535866D01*
X120554856Y-98364307D01*
X120879870Y-97579652D01*
X120879870Y-96730348D01*
X120554856Y-95945693D01*
X119954307Y-95345144D01*
X119734701Y-95254180D01*
X119919505Y-95177632D01*
X120079272Y-94858877D01*
X118745000Y-93524605D01*
X117410728Y-94858877D01*
X117570495Y-95177632D01*
X117760391Y-95252071D01*
X117535693Y-95345144D01*
X116935144Y-95945693D01*
X116610130Y-96730348D01*
X114427000Y-96730348D01*
X114427000Y-92961217D01*
X116602405Y-92961217D01*
X116618633Y-93810366D01*
X116912368Y-94519505D01*
X117231123Y-94679272D01*
X118565395Y-93345000D01*
X118924605Y-93345000D01*
X120258877Y-94679272D01*
X120577632Y-94519505D01*
X120887595Y-93728783D01*
X120871367Y-92879634D01*
X120577632Y-92170495D01*
X120258877Y-92010728D01*
X118924605Y-93345000D01*
X118565395Y-93345000D01*
X117231123Y-92010728D01*
X116912368Y-92170495D01*
X116602405Y-92961217D01*
X114427000Y-92961217D01*
X114427000Y-91831123D01*
X117410728Y-91831123D01*
X118745000Y-93165395D01*
X120079272Y-91831123D01*
X119919505Y-91512368D01*
X119128783Y-91202405D01*
X118279634Y-91218633D01*
X117570495Y-91512368D01*
X117410728Y-91831123D01*
X114427000Y-91831123D01*
X114427000Y-89185750D01*
X116575000Y-89185750D01*
X116575000Y-89926309D01*
X116671673Y-90159698D01*
X116850301Y-90338327D01*
X117083690Y-90435000D01*
X117824250Y-90435000D01*
X117983000Y-90276250D01*
X117983000Y-89027000D01*
X118237000Y-89027000D01*
X118237000Y-90276250D01*
X118395750Y-90435000D01*
X119136310Y-90435000D01*
X119369699Y-90338327D01*
X119548327Y-90159698D01*
X119645000Y-89926309D01*
X119645000Y-89185750D01*
X183250000Y-89185750D01*
X183250000Y-89926309D01*
X183346673Y-90159698D01*
X183525301Y-90338327D01*
X183758690Y-90435000D01*
X184499250Y-90435000D01*
X184658000Y-90276250D01*
X184658000Y-89027000D01*
X184912000Y-89027000D01*
X184912000Y-90276250D01*
X185070750Y-90435000D01*
X185811310Y-90435000D01*
X186044699Y-90338327D01*
X186223327Y-90159698D01*
X186320000Y-89926309D01*
X186320000Y-89185750D01*
X186161250Y-89027000D01*
X184912000Y-89027000D01*
X184658000Y-89027000D01*
X183408750Y-89027000D01*
X183250000Y-89185750D01*
X119645000Y-89185750D01*
X119486250Y-89027000D01*
X118237000Y-89027000D01*
X117983000Y-89027000D01*
X116733750Y-89027000D01*
X116575000Y-89185750D01*
X114427000Y-89185750D01*
X114427000Y-86054670D01*
X116575000Y-86054670D01*
X116575000Y-86665330D01*
X116808690Y-87229507D01*
X116985044Y-87405861D01*
X116850301Y-87461673D01*
X116671673Y-87640302D01*
X116575000Y-87873691D01*
X116575000Y-88614250D01*
X116733750Y-88773000D01*
X117983000Y-88773000D01*
X117983000Y-88753000D01*
X118237000Y-88753000D01*
X118237000Y-88773000D01*
X119486250Y-88773000D01*
X119645000Y-88614250D01*
X119645000Y-87873691D01*
X119548327Y-87640302D01*
X119369699Y-87461673D01*
X119234956Y-87405861D01*
X119411310Y-87229507D01*
X119645000Y-86665330D01*
X119645000Y-86054670D01*
X119411310Y-85490493D01*
X118979507Y-85058690D01*
X118415330Y-84825000D01*
X117804670Y-84825000D01*
X117240493Y-85058690D01*
X116808690Y-85490493D01*
X116575000Y-86054670D01*
X114427000Y-86054670D01*
X114427000Y-84804561D01*
X123025000Y-84804561D01*
X123025000Y-85375439D01*
X123243466Y-85902862D01*
X123647138Y-86306534D01*
X124174561Y-86525000D01*
X124745439Y-86525000D01*
X125272862Y-86306534D01*
X125676534Y-85902862D01*
X125895000Y-85375439D01*
X125895000Y-84860130D01*
X129932690Y-84860130D01*
X129932690Y-87859870D01*
X129981973Y-88107635D01*
X130122321Y-88317679D01*
X130332365Y-88458027D01*
X130580130Y-88507310D01*
X133579870Y-88507310D01*
X133827635Y-88458027D01*
X134037679Y-88317679D01*
X134178027Y-88107635D01*
X134224523Y-87873877D01*
X134555728Y-87873877D01*
X134715495Y-88192632D01*
X135506217Y-88502595D01*
X136355366Y-88486367D01*
X137064505Y-88192632D01*
X137224272Y-87873877D01*
X135890000Y-86539605D01*
X134555728Y-87873877D01*
X134224523Y-87873877D01*
X134227310Y-87859870D01*
X134227310Y-87619684D01*
X134376123Y-87694272D01*
X135710395Y-86360000D01*
X136069605Y-86360000D01*
X137403877Y-87694272D01*
X137722632Y-87534505D01*
X138032595Y-86743783D01*
X138016367Y-85894634D01*
X137984901Y-85818668D01*
X145885000Y-85818668D01*
X145885000Y-86901333D01*
X145968260Y-87319909D01*
X146285424Y-87794577D01*
X146760092Y-88111740D01*
X147320000Y-88223113D01*
X147879909Y-88111740D01*
X148354577Y-87794577D01*
X148590000Y-87442241D01*
X148825424Y-87794577D01*
X149300092Y-88111740D01*
X149860000Y-88223113D01*
X150419909Y-88111740D01*
X150894577Y-87794577D01*
X151130000Y-87442241D01*
X151365424Y-87794577D01*
X151840092Y-88111740D01*
X152400000Y-88223113D01*
X152959909Y-88111740D01*
X153434577Y-87794577D01*
X153670000Y-87442241D01*
X153905424Y-87794577D01*
X154380092Y-88111740D01*
X154940000Y-88223113D01*
X155499909Y-88111740D01*
X155974577Y-87794577D01*
X156291740Y-87319909D01*
X156375000Y-86901332D01*
X156375000Y-85818667D01*
X156291740Y-85400091D01*
X155974576Y-84925423D01*
X155876859Y-84860130D01*
X161682690Y-84860130D01*
X161682690Y-87859870D01*
X161731973Y-88107635D01*
X161872321Y-88317679D01*
X162082365Y-88458027D01*
X162330130Y-88507310D01*
X165329870Y-88507310D01*
X165577635Y-88458027D01*
X165787679Y-88317679D01*
X165928027Y-88107635D01*
X165977310Y-87859870D01*
X165977310Y-87716473D01*
X166430693Y-88169856D01*
X167215348Y-88494870D01*
X168064652Y-88494870D01*
X168849307Y-88169856D01*
X169449856Y-87569307D01*
X169545000Y-87339609D01*
X169640144Y-87569307D01*
X170240693Y-88169856D01*
X171025348Y-88494870D01*
X171874652Y-88494870D01*
X172659307Y-88169856D01*
X173259856Y-87569307D01*
X173584870Y-86784652D01*
X173584870Y-85935348D01*
X173259856Y-85150693D01*
X172913724Y-84804561D01*
X176365000Y-84804561D01*
X176365000Y-85375439D01*
X176583466Y-85902862D01*
X176987138Y-86306534D01*
X177514561Y-86525000D01*
X178085439Y-86525000D01*
X178612862Y-86306534D01*
X178864726Y-86054670D01*
X183250000Y-86054670D01*
X183250000Y-86665330D01*
X183483690Y-87229507D01*
X183660044Y-87405861D01*
X183525301Y-87461673D01*
X183346673Y-87640302D01*
X183250000Y-87873691D01*
X183250000Y-88614250D01*
X183408750Y-88773000D01*
X184658000Y-88773000D01*
X184658000Y-88753000D01*
X184912000Y-88753000D01*
X184912000Y-88773000D01*
X186161250Y-88773000D01*
X186320000Y-88614250D01*
X186320000Y-87873691D01*
X186223327Y-87640302D01*
X186044699Y-87461673D01*
X185909956Y-87405861D01*
X186086310Y-87229507D01*
X186320000Y-86665330D01*
X186320000Y-86054670D01*
X186086310Y-85490493D01*
X185654507Y-85058690D01*
X185090330Y-84825000D01*
X184479670Y-84825000D01*
X183915493Y-85058690D01*
X183483690Y-85490493D01*
X183250000Y-86054670D01*
X178864726Y-86054670D01*
X179016534Y-85902862D01*
X179235000Y-85375439D01*
X179235000Y-84804561D01*
X179016534Y-84277138D01*
X178612862Y-83873466D01*
X178085439Y-83655000D01*
X177514561Y-83655000D01*
X176987138Y-83873466D01*
X176583466Y-84277138D01*
X176365000Y-84804561D01*
X172913724Y-84804561D01*
X172659307Y-84550144D01*
X171874652Y-84225130D01*
X171025348Y-84225130D01*
X170240693Y-84550144D01*
X169640144Y-85150693D01*
X169545000Y-85380391D01*
X169449856Y-85150693D01*
X168849307Y-84550144D01*
X168064652Y-84225130D01*
X167215348Y-84225130D01*
X166430693Y-84550144D01*
X165977310Y-85003527D01*
X165977310Y-84860130D01*
X165928027Y-84612365D01*
X165787679Y-84402321D01*
X165577635Y-84261973D01*
X165329870Y-84212690D01*
X162330130Y-84212690D01*
X162082365Y-84261973D01*
X161872321Y-84402321D01*
X161731973Y-84612365D01*
X161682690Y-84860130D01*
X155876859Y-84860130D01*
X155499908Y-84608260D01*
X154940000Y-84496887D01*
X154380091Y-84608260D01*
X153905423Y-84925424D01*
X153670000Y-85277759D01*
X153434576Y-84925423D01*
X152959908Y-84608260D01*
X152400000Y-84496887D01*
X151840091Y-84608260D01*
X151365423Y-84925424D01*
X151130000Y-85277759D01*
X150894576Y-84925423D01*
X150419908Y-84608260D01*
X149860000Y-84496887D01*
X149300091Y-84608260D01*
X148825423Y-84925424D01*
X148590000Y-85277759D01*
X148354576Y-84925423D01*
X147879908Y-84608260D01*
X147320000Y-84496887D01*
X146760091Y-84608260D01*
X146285423Y-84925424D01*
X145968260Y-85400092D01*
X145885000Y-85818668D01*
X137984901Y-85818668D01*
X137722632Y-85185495D01*
X137403877Y-85025728D01*
X136069605Y-86360000D01*
X135710395Y-86360000D01*
X134376123Y-85025728D01*
X134227310Y-85100316D01*
X134227310Y-84860130D01*
X134224524Y-84846123D01*
X134555728Y-84846123D01*
X135890000Y-86180395D01*
X137224272Y-84846123D01*
X137064505Y-84527368D01*
X136273783Y-84217405D01*
X135424634Y-84233633D01*
X134715495Y-84527368D01*
X134555728Y-84846123D01*
X134224524Y-84846123D01*
X134178027Y-84612365D01*
X134037679Y-84402321D01*
X133827635Y-84261973D01*
X133579870Y-84212690D01*
X130580130Y-84212690D01*
X130332365Y-84261973D01*
X130122321Y-84402321D01*
X129981973Y-84612365D01*
X129932690Y-84860130D01*
X125895000Y-84860130D01*
X125895000Y-84804561D01*
X125676534Y-84277138D01*
X125272862Y-83873466D01*
X124745439Y-83655000D01*
X124174561Y-83655000D01*
X123647138Y-83873466D01*
X123243466Y-84277138D01*
X123025000Y-84804561D01*
X114427000Y-84804561D01*
X114427000Y-83312000D01*
X189103000Y-83312000D01*
X189103000Y-117983000D01*
X189103000Y-117983000D01*
G37*
X189103000Y-117983000D02*
X114427000Y-117983000D01*
X114427000Y-117083877D01*
X117410728Y-117083877D01*
X117570495Y-117402632D01*
X118361217Y-117712595D01*
X119210366Y-117696367D01*
X119919505Y-117402632D01*
X120079272Y-117083877D01*
X183450728Y-117083877D01*
X183610495Y-117402632D01*
X184401217Y-117712595D01*
X185250366Y-117696367D01*
X185959505Y-117402632D01*
X186119272Y-117083877D01*
X184785000Y-115749605D01*
X183450728Y-117083877D01*
X120079272Y-117083877D01*
X118745000Y-115749605D01*
X117410728Y-117083877D01*
X114427000Y-117083877D01*
X114427000Y-115186217D01*
X116602405Y-115186217D01*
X116618633Y-116035366D01*
X116912368Y-116744505D01*
X117231123Y-116904272D01*
X118565395Y-115570000D01*
X118924605Y-115570000D01*
X120258877Y-116904272D01*
X120577632Y-116744505D01*
X120887595Y-115953783D01*
X120880261Y-115570000D01*
X122996887Y-115570000D01*
X123108260Y-116129909D01*
X123425423Y-116604577D01*
X123900091Y-116921740D01*
X124318667Y-117005000D01*
X124601333Y-117005000D01*
X125019909Y-116921740D01*
X125494577Y-116604577D01*
X125811740Y-116129909D01*
X125923113Y-115570000D01*
X125811740Y-115010091D01*
X125651317Y-114770000D01*
X131267560Y-114770000D01*
X131267560Y-116370000D01*
X131316843Y-116617765D01*
X131457191Y-116827809D01*
X131667235Y-116968157D01*
X131915000Y-117017440D01*
X133515000Y-117017440D01*
X133762765Y-116968157D01*
X133972809Y-116827809D01*
X134113157Y-116617765D01*
X134139785Y-116483894D01*
X134220423Y-116604577D01*
X134695091Y-116921740D01*
X135113667Y-117005000D01*
X135396333Y-117005000D01*
X135814909Y-116921740D01*
X136289577Y-116604577D01*
X136525000Y-116252242D01*
X136760423Y-116604577D01*
X137235091Y-116921740D01*
X137653667Y-117005000D01*
X137936333Y-117005000D01*
X138354909Y-116921740D01*
X138829577Y-116604577D01*
X139085947Y-116220892D01*
X139182611Y-116425134D01*
X139597577Y-116801041D01*
X139985961Y-116961904D01*
X140208000Y-116839915D01*
X140208000Y-115697000D01*
X140188000Y-115697000D01*
X140188000Y-115443000D01*
X140208000Y-115443000D01*
X140208000Y-114300085D01*
X140462000Y-114300085D01*
X140462000Y-115443000D01*
X140482000Y-115443000D01*
X140482000Y-115697000D01*
X140462000Y-115697000D01*
X140462000Y-116839915D01*
X140684039Y-116961904D01*
X141072423Y-116801041D01*
X141487389Y-116425134D01*
X141584053Y-116220892D01*
X141840423Y-116604577D01*
X142315091Y-116921740D01*
X142733667Y-117005000D01*
X143016333Y-117005000D01*
X143434909Y-116921740D01*
X143909577Y-116604577D01*
X144145000Y-116252242D01*
X144380423Y-116604577D01*
X144855091Y-116921740D01*
X145273667Y-117005000D01*
X145556333Y-117005000D01*
X145974909Y-116921740D01*
X146449577Y-116604577D01*
X146685000Y-116252242D01*
X146920423Y-116604577D01*
X147395091Y-116921740D01*
X147813667Y-117005000D01*
X148096333Y-117005000D01*
X148514909Y-116921740D01*
X148989577Y-116604577D01*
X149225000Y-116252242D01*
X149460423Y-116604577D01*
X149935091Y-116921740D01*
X150353667Y-117005000D01*
X150636333Y-117005000D01*
X151054909Y-116921740D01*
X151529577Y-116604577D01*
X151765000Y-116252242D01*
X152000423Y-116604577D01*
X152475091Y-116921740D01*
X152893667Y-117005000D01*
X153176333Y-117005000D01*
X153594909Y-116921740D01*
X154069577Y-116604577D01*
X154305000Y-116252242D01*
X154540423Y-116604577D01*
X155015091Y-116921740D01*
X155433667Y-117005000D01*
X155716333Y-117005000D01*
X156134909Y-116921740D01*
X156609577Y-116604577D01*
X156845000Y-116252242D01*
X157080423Y-116604577D01*
X157555091Y-116921740D01*
X157973667Y-117005000D01*
X158256333Y-117005000D01*
X158674909Y-116921740D01*
X159149577Y-116604577D01*
X159385000Y-116252242D01*
X159620423Y-116604577D01*
X160095091Y-116921740D01*
X160513667Y-117005000D01*
X160796333Y-117005000D01*
X161214909Y-116921740D01*
X161689577Y-116604577D01*
X161925000Y-116252242D01*
X162160423Y-116604577D01*
X162635091Y-116921740D01*
X163053667Y-117005000D01*
X163336333Y-117005000D01*
X163754909Y-116921740D01*
X164229577Y-116604577D01*
X164465000Y-116252242D01*
X164700423Y-116604577D01*
X165175091Y-116921740D01*
X165593667Y-117005000D01*
X165876333Y-117005000D01*
X166294909Y-116921740D01*
X166769577Y-116604577D01*
X167005000Y-116252242D01*
X167240423Y-116604577D01*
X167715091Y-116921740D01*
X168133667Y-117005000D01*
X168416333Y-117005000D01*
X168834909Y-116921740D01*
X169309577Y-116604577D01*
X169626740Y-116129909D01*
X169738113Y-115570000D01*
X176336887Y-115570000D01*
X176448260Y-116129909D01*
X176765423Y-116604577D01*
X177240091Y-116921740D01*
X177658667Y-117005000D01*
X177941333Y-117005000D01*
X178359909Y-116921740D01*
X178834577Y-116604577D01*
X179151740Y-116129909D01*
X179263113Y-115570000D01*
X179186774Y-115186217D01*
X182642405Y-115186217D01*
X182658633Y-116035366D01*
X182952368Y-116744505D01*
X183271123Y-116904272D01*
X184605395Y-115570000D01*
X184964605Y-115570000D01*
X186298877Y-116904272D01*
X186617632Y-116744505D01*
X186927595Y-115953783D01*
X186911367Y-115104634D01*
X186617632Y-114395495D01*
X186298877Y-114235728D01*
X184964605Y-115570000D01*
X184605395Y-115570000D01*
X183271123Y-114235728D01*
X182952368Y-114395495D01*
X182642405Y-115186217D01*
X179186774Y-115186217D01*
X179151740Y-115010091D01*
X178834577Y-114535423D01*
X178359909Y-114218260D01*
X177941333Y-114135000D01*
X177658667Y-114135000D01*
X177240091Y-114218260D01*
X176765423Y-114535423D01*
X176448260Y-115010091D01*
X176336887Y-115570000D01*
X169738113Y-115570000D01*
X169626740Y-115010091D01*
X169309577Y-114535423D01*
X168834909Y-114218260D01*
X168416333Y-114135000D01*
X168133667Y-114135000D01*
X167715091Y-114218260D01*
X167240423Y-114535423D01*
X167005000Y-114887758D01*
X166769577Y-114535423D01*
X166294909Y-114218260D01*
X165876333Y-114135000D01*
X165593667Y-114135000D01*
X165175091Y-114218260D01*
X164700423Y-114535423D01*
X164465000Y-114887758D01*
X164229577Y-114535423D01*
X163754909Y-114218260D01*
X163336333Y-114135000D01*
X163053667Y-114135000D01*
X162635091Y-114218260D01*
X162160423Y-114535423D01*
X161925000Y-114887758D01*
X161689577Y-114535423D01*
X161214909Y-114218260D01*
X160796333Y-114135000D01*
X160513667Y-114135000D01*
X160095091Y-114218260D01*
X159620423Y-114535423D01*
X159385000Y-114887758D01*
X159149577Y-114535423D01*
X158674909Y-114218260D01*
X158256333Y-114135000D01*
X157973667Y-114135000D01*
X157555091Y-114218260D01*
X157080423Y-114535423D01*
X156845000Y-114887758D01*
X156609577Y-114535423D01*
X156134909Y-114218260D01*
X155716333Y-114135000D01*
X155433667Y-114135000D01*
X155015091Y-114218260D01*
X154540423Y-114535423D01*
X154305000Y-114887758D01*
X154069577Y-114535423D01*
X153594909Y-114218260D01*
X153176333Y-114135000D01*
X152893667Y-114135000D01*
X152475091Y-114218260D01*
X152000423Y-114535423D01*
X151765000Y-114887758D01*
X151529577Y-114535423D01*
X151054909Y-114218260D01*
X150636333Y-114135000D01*
X150353667Y-114135000D01*
X149935091Y-114218260D01*
X149460423Y-114535423D01*
X149225000Y-114887758D01*
X148989577Y-114535423D01*
X148514909Y-114218260D01*
X148096333Y-114135000D01*
X147813667Y-114135000D01*
X147395091Y-114218260D01*
X146920423Y-114535423D01*
X146685000Y-114887758D01*
X146449577Y-114535423D01*
X145974909Y-114218260D01*
X145556333Y-114135000D01*
X145273667Y-114135000D01*
X144855091Y-114218260D01*
X144380423Y-114535423D01*
X144145000Y-114887758D01*
X143909577Y-114535423D01*
X143434909Y-114218260D01*
X143016333Y-114135000D01*
X142733667Y-114135000D01*
X142315091Y-114218260D01*
X141840423Y-114535423D01*
X141584053Y-114919108D01*
X141487389Y-114714866D01*
X141072423Y-114338959D01*
X140684039Y-114178096D01*
X140462000Y-114300085D01*
X140208000Y-114300085D01*
X139985961Y-114178096D01*
X139597577Y-114338959D01*
X139182611Y-114714866D01*
X139085947Y-114919108D01*
X138829577Y-114535423D01*
X138354909Y-114218260D01*
X137936333Y-114135000D01*
X137653667Y-114135000D01*
X137235091Y-114218260D01*
X136760423Y-114535423D01*
X136525000Y-114887758D01*
X136289577Y-114535423D01*
X135814909Y-114218260D01*
X135396333Y-114135000D01*
X135113667Y-114135000D01*
X134695091Y-114218260D01*
X134220423Y-114535423D01*
X134139785Y-114656106D01*
X134113157Y-114522235D01*
X133972809Y-114312191D01*
X133762765Y-114171843D01*
X133515000Y-114122560D01*
X131915000Y-114122560D01*
X131667235Y-114171843D01*
X131457191Y-114312191D01*
X131316843Y-114522235D01*
X131267560Y-114770000D01*
X125651317Y-114770000D01*
X125494577Y-114535423D01*
X125019909Y-114218260D01*
X124601333Y-114135000D01*
X124318667Y-114135000D01*
X123900091Y-114218260D01*
X123425423Y-114535423D01*
X123108260Y-115010091D01*
X122996887Y-115570000D01*
X120880261Y-115570000D01*
X120871367Y-115104634D01*
X120577632Y-114395495D01*
X120258877Y-114235728D01*
X118924605Y-115570000D01*
X118565395Y-115570000D01*
X117231123Y-114235728D01*
X116912368Y-114395495D01*
X116602405Y-115186217D01*
X114427000Y-115186217D01*
X114427000Y-111335348D01*
X116610130Y-111335348D01*
X116610130Y-112184652D01*
X116935144Y-112969307D01*
X117535693Y-113569856D01*
X117755299Y-113660820D01*
X117570495Y-113737368D01*
X117410728Y-114056123D01*
X118745000Y-115390395D01*
X120079272Y-114056123D01*
X119919505Y-113737368D01*
X119729609Y-113662929D01*
X119954307Y-113569856D01*
X120554856Y-112969307D01*
X120879870Y-112184652D01*
X120879870Y-111335348D01*
X182650130Y-111335348D01*
X182650130Y-112184652D01*
X182975144Y-112969307D01*
X183575693Y-113569856D01*
X183795299Y-113660820D01*
X183610495Y-113737368D01*
X183450728Y-114056123D01*
X184785000Y-115390395D01*
X186119272Y-114056123D01*
X185959505Y-113737368D01*
X185769609Y-113662929D01*
X185994307Y-113569856D01*
X186594856Y-112969307D01*
X186919870Y-112184652D01*
X186919870Y-111335348D01*
X186594856Y-110550693D01*
X185994307Y-109950144D01*
X185209652Y-109625130D01*
X184360348Y-109625130D01*
X183575693Y-109950144D01*
X182975144Y-110550693D01*
X182650130Y-111335348D01*
X120879870Y-111335348D01*
X120554856Y-110550693D01*
X119954307Y-109950144D01*
X119169652Y-109625130D01*
X118320348Y-109625130D01*
X117535693Y-109950144D01*
X116935144Y-110550693D01*
X116610130Y-111335348D01*
X114427000Y-111335348D01*
X114427000Y-106965750D01*
X116575000Y-106965750D01*
X116575000Y-107706309D01*
X116671673Y-107939698D01*
X116850301Y-108118327D01*
X117083690Y-108215000D01*
X117824250Y-108215000D01*
X117983000Y-108056250D01*
X117983000Y-106807000D01*
X118237000Y-106807000D01*
X118237000Y-108056250D01*
X118395750Y-108215000D01*
X119136310Y-108215000D01*
X119369699Y-108118327D01*
X119548327Y-107939698D01*
X119645000Y-107706309D01*
X119645000Y-106965750D01*
X183250000Y-106965750D01*
X183250000Y-107706309D01*
X183346673Y-107939698D01*
X183525301Y-108118327D01*
X183758690Y-108215000D01*
X184499250Y-108215000D01*
X184658000Y-108056250D01*
X184658000Y-106807000D01*
X184912000Y-106807000D01*
X184912000Y-108056250D01*
X185070750Y-108215000D01*
X185811310Y-108215000D01*
X186044699Y-108118327D01*
X186223327Y-107939698D01*
X186320000Y-107706309D01*
X186320000Y-106965750D01*
X186161250Y-106807000D01*
X184912000Y-106807000D01*
X184658000Y-106807000D01*
X183408750Y-106807000D01*
X183250000Y-106965750D01*
X119645000Y-106965750D01*
X119486250Y-106807000D01*
X118237000Y-106807000D01*
X117983000Y-106807000D01*
X116733750Y-106807000D01*
X116575000Y-106965750D01*
X114427000Y-106965750D01*
X114427000Y-103834670D01*
X116575000Y-103834670D01*
X116575000Y-104445330D01*
X116808690Y-105009507D01*
X116985044Y-105185861D01*
X116850301Y-105241673D01*
X116671673Y-105420302D01*
X116575000Y-105653691D01*
X116575000Y-106394250D01*
X116733750Y-106553000D01*
X117983000Y-106553000D01*
X117983000Y-106533000D01*
X118237000Y-106533000D01*
X118237000Y-106553000D01*
X119486250Y-106553000D01*
X119645000Y-106394250D01*
X119645000Y-105653691D01*
X119548327Y-105420302D01*
X119369699Y-105241673D01*
X119234956Y-105185861D01*
X119296256Y-105124561D01*
X123025000Y-105124561D01*
X123025000Y-105695439D01*
X123243466Y-106222862D01*
X123647138Y-106626534D01*
X124174561Y-106845000D01*
X124745439Y-106845000D01*
X125272862Y-106626534D01*
X125676534Y-106222862D01*
X125895000Y-105695439D01*
X125895000Y-105124561D01*
X176365000Y-105124561D01*
X176365000Y-105695439D01*
X176583466Y-106222862D01*
X176987138Y-106626534D01*
X177514561Y-106845000D01*
X178085439Y-106845000D01*
X178612862Y-106626534D01*
X179016534Y-106222862D01*
X179235000Y-105695439D01*
X179235000Y-105124561D01*
X179016534Y-104597138D01*
X178612862Y-104193466D01*
X178085439Y-103975000D01*
X177514561Y-103975000D01*
X176987138Y-104193466D01*
X176583466Y-104597138D01*
X176365000Y-105124561D01*
X125895000Y-105124561D01*
X125676534Y-104597138D01*
X125272862Y-104193466D01*
X124745439Y-103975000D01*
X124174561Y-103975000D01*
X123647138Y-104193466D01*
X123243466Y-104597138D01*
X123025000Y-105124561D01*
X119296256Y-105124561D01*
X119411310Y-105009507D01*
X119645000Y-104445330D01*
X119645000Y-103834670D01*
X183250000Y-103834670D01*
X183250000Y-104445330D01*
X183483690Y-105009507D01*
X183660044Y-105185861D01*
X183525301Y-105241673D01*
X183346673Y-105420302D01*
X183250000Y-105653691D01*
X183250000Y-106394250D01*
X183408750Y-106553000D01*
X184658000Y-106553000D01*
X184658000Y-106533000D01*
X184912000Y-106533000D01*
X184912000Y-106553000D01*
X186161250Y-106553000D01*
X186320000Y-106394250D01*
X186320000Y-105653691D01*
X186223327Y-105420302D01*
X186044699Y-105241673D01*
X185909956Y-105185861D01*
X186086310Y-105009507D01*
X186320000Y-104445330D01*
X186320000Y-103834670D01*
X186086310Y-103270493D01*
X185654507Y-102838690D01*
X185090330Y-102605000D01*
X184479670Y-102605000D01*
X183915493Y-102838690D01*
X183483690Y-103270493D01*
X183250000Y-103834670D01*
X119645000Y-103834670D01*
X119411310Y-103270493D01*
X118979507Y-102838690D01*
X118415330Y-102605000D01*
X117804670Y-102605000D01*
X117240493Y-102838690D01*
X116808690Y-103270493D01*
X116575000Y-103834670D01*
X114427000Y-103834670D01*
X114427000Y-96730348D01*
X116610130Y-96730348D01*
X116610130Y-97579652D01*
X116935144Y-98364307D01*
X117535693Y-98964856D01*
X118320348Y-99289870D01*
X119169652Y-99289870D01*
X119954307Y-98964856D01*
X120383297Y-98535866D01*
X122460000Y-98535866D01*
X122460000Y-99584134D01*
X122861155Y-100552608D01*
X123602392Y-101293845D01*
X124570866Y-101695000D01*
X125619134Y-101695000D01*
X126587608Y-101293845D01*
X127328845Y-100552608D01*
X127421052Y-100330000D01*
X131251887Y-100330000D01*
X131363260Y-100889909D01*
X131680423Y-101364577D01*
X132155091Y-101681740D01*
X132573667Y-101765000D01*
X132856333Y-101765000D01*
X133274909Y-101681740D01*
X133749577Y-101364577D01*
X134005947Y-100980892D01*
X134102611Y-101185134D01*
X134517577Y-101561041D01*
X134905961Y-101721904D01*
X135128000Y-101599915D01*
X135128000Y-100457000D01*
X135108000Y-100457000D01*
X135108000Y-100203000D01*
X135128000Y-100203000D01*
X135128000Y-99060085D01*
X135382000Y-99060085D01*
X135382000Y-100203000D01*
X135402000Y-100203000D01*
X135402000Y-100457000D01*
X135382000Y-100457000D01*
X135382000Y-101599915D01*
X135604039Y-101721904D01*
X135992423Y-101561041D01*
X136407389Y-101185134D01*
X136504053Y-100980892D01*
X136760423Y-101364577D01*
X137235091Y-101681740D01*
X137653667Y-101765000D01*
X137936333Y-101765000D01*
X138354909Y-101681740D01*
X138829577Y-101364577D01*
X139065000Y-101012242D01*
X139300423Y-101364577D01*
X139775091Y-101681740D01*
X140193667Y-101765000D01*
X140476333Y-101765000D01*
X140894909Y-101681740D01*
X141369577Y-101364577D01*
X141605000Y-101012242D01*
X141840423Y-101364577D01*
X142315091Y-101681740D01*
X142733667Y-101765000D01*
X143016333Y-101765000D01*
X143434909Y-101681740D01*
X143909577Y-101364577D01*
X144145000Y-101012242D01*
X144380423Y-101364577D01*
X144855091Y-101681740D01*
X145273667Y-101765000D01*
X145556333Y-101765000D01*
X145974909Y-101681740D01*
X146449577Y-101364577D01*
X146685000Y-101012242D01*
X146920423Y-101364577D01*
X147395091Y-101681740D01*
X147813667Y-101765000D01*
X148096333Y-101765000D01*
X148514909Y-101681740D01*
X148989577Y-101364577D01*
X149225000Y-101012242D01*
X149460423Y-101364577D01*
X149935091Y-101681740D01*
X150353667Y-101765000D01*
X150636333Y-101765000D01*
X151054909Y-101681740D01*
X151529577Y-101364577D01*
X151765000Y-101012242D01*
X152000423Y-101364577D01*
X152475091Y-101681740D01*
X152893667Y-101765000D01*
X153176333Y-101765000D01*
X153594909Y-101681740D01*
X154069577Y-101364577D01*
X154305000Y-101012242D01*
X154540423Y-101364577D01*
X155015091Y-101681740D01*
X155433667Y-101765000D01*
X155716333Y-101765000D01*
X156134909Y-101681740D01*
X156609577Y-101364577D01*
X156845000Y-101012242D01*
X157080423Y-101364577D01*
X157555091Y-101681740D01*
X157973667Y-101765000D01*
X158256333Y-101765000D01*
X158674909Y-101681740D01*
X159149577Y-101364577D01*
X159385000Y-101012242D01*
X159620423Y-101364577D01*
X160095091Y-101681740D01*
X160513667Y-101765000D01*
X160796333Y-101765000D01*
X161214909Y-101681740D01*
X161689577Y-101364577D01*
X161925000Y-101012242D01*
X162160423Y-101364577D01*
X162635091Y-101681740D01*
X163053667Y-101765000D01*
X163336333Y-101765000D01*
X163754909Y-101681740D01*
X164229577Y-101364577D01*
X164465000Y-101012242D01*
X164700423Y-101364577D01*
X165175091Y-101681740D01*
X165593667Y-101765000D01*
X165876333Y-101765000D01*
X166294909Y-101681740D01*
X166769577Y-101364577D01*
X167005000Y-101012242D01*
X167240423Y-101364577D01*
X167715091Y-101681740D01*
X168133667Y-101765000D01*
X168416333Y-101765000D01*
X168834909Y-101681740D01*
X169309577Y-101364577D01*
X169626740Y-100889909D01*
X169738113Y-100330000D01*
X169633857Y-99805866D01*
X175800000Y-99805866D01*
X175800000Y-100854134D01*
X176201155Y-101822608D01*
X176942392Y-102563845D01*
X177910866Y-102965000D01*
X178959134Y-102965000D01*
X179927608Y-102563845D01*
X180668845Y-101822608D01*
X181070000Y-100854134D01*
X181070000Y-99805866D01*
X180862070Y-99303877D01*
X183450728Y-99303877D01*
X183610495Y-99622632D01*
X184401217Y-99932595D01*
X185250366Y-99916367D01*
X185959505Y-99622632D01*
X186119272Y-99303877D01*
X184785000Y-97969605D01*
X183450728Y-99303877D01*
X180862070Y-99303877D01*
X180668845Y-98837392D01*
X179927608Y-98096155D01*
X178959134Y-97695000D01*
X177910866Y-97695000D01*
X176942392Y-98096155D01*
X176201155Y-98837392D01*
X175800000Y-99805866D01*
X169633857Y-99805866D01*
X169626740Y-99770091D01*
X169309577Y-99295423D01*
X168834909Y-98978260D01*
X168416333Y-98895000D01*
X168133667Y-98895000D01*
X167715091Y-98978260D01*
X167240423Y-99295423D01*
X167005000Y-99647758D01*
X166769577Y-99295423D01*
X166294909Y-98978260D01*
X165876333Y-98895000D01*
X165593667Y-98895000D01*
X165175091Y-98978260D01*
X164700423Y-99295423D01*
X164465000Y-99647758D01*
X164229577Y-99295423D01*
X163754909Y-98978260D01*
X163336333Y-98895000D01*
X163053667Y-98895000D01*
X162635091Y-98978260D01*
X162160423Y-99295423D01*
X161925000Y-99647758D01*
X161689577Y-99295423D01*
X161214909Y-98978260D01*
X160796333Y-98895000D01*
X160513667Y-98895000D01*
X160095091Y-98978260D01*
X159620423Y-99295423D01*
X159385000Y-99647758D01*
X159149577Y-99295423D01*
X158674909Y-98978260D01*
X158256333Y-98895000D01*
X157973667Y-98895000D01*
X157555091Y-98978260D01*
X157080423Y-99295423D01*
X156845000Y-99647758D01*
X156609577Y-99295423D01*
X156134909Y-98978260D01*
X155716333Y-98895000D01*
X155433667Y-98895000D01*
X155015091Y-98978260D01*
X154540423Y-99295423D01*
X154305000Y-99647758D01*
X154069577Y-99295423D01*
X153594909Y-98978260D01*
X153176333Y-98895000D01*
X152893667Y-98895000D01*
X152475091Y-98978260D01*
X152000423Y-99295423D01*
X151765000Y-99647758D01*
X151529577Y-99295423D01*
X151054909Y-98978260D01*
X150636333Y-98895000D01*
X150353667Y-98895000D01*
X149935091Y-98978260D01*
X149460423Y-99295423D01*
X149225000Y-99647758D01*
X148989577Y-99295423D01*
X148514909Y-98978260D01*
X148096333Y-98895000D01*
X147813667Y-98895000D01*
X147395091Y-98978260D01*
X146920423Y-99295423D01*
X146685000Y-99647758D01*
X146449577Y-99295423D01*
X145974909Y-98978260D01*
X145556333Y-98895000D01*
X145273667Y-98895000D01*
X144855091Y-98978260D01*
X144380423Y-99295423D01*
X144145000Y-99647758D01*
X143909577Y-99295423D01*
X143434909Y-98978260D01*
X143016333Y-98895000D01*
X142733667Y-98895000D01*
X142315091Y-98978260D01*
X141840423Y-99295423D01*
X141605000Y-99647758D01*
X141369577Y-99295423D01*
X140894909Y-98978260D01*
X140476333Y-98895000D01*
X140193667Y-98895000D01*
X139775091Y-98978260D01*
X139300423Y-99295423D01*
X139065000Y-99647758D01*
X138829577Y-99295423D01*
X138354909Y-98978260D01*
X137936333Y-98895000D01*
X137653667Y-98895000D01*
X137235091Y-98978260D01*
X136760423Y-99295423D01*
X136504053Y-99679108D01*
X136407389Y-99474866D01*
X135992423Y-99098959D01*
X135604039Y-98938096D01*
X135382000Y-99060085D01*
X135128000Y-99060085D01*
X134905961Y-98938096D01*
X134517577Y-99098959D01*
X134102611Y-99474866D01*
X134005947Y-99679108D01*
X133749577Y-99295423D01*
X133274909Y-98978260D01*
X132856333Y-98895000D01*
X132573667Y-98895000D01*
X132155091Y-98978260D01*
X131680423Y-99295423D01*
X131363260Y-99770091D01*
X131251887Y-100330000D01*
X127421052Y-100330000D01*
X127730000Y-99584134D01*
X127730000Y-98535866D01*
X127328845Y-97567392D01*
X127167670Y-97406217D01*
X182642405Y-97406217D01*
X182658633Y-98255366D01*
X182952368Y-98964505D01*
X183271123Y-99124272D01*
X184605395Y-97790000D01*
X184964605Y-97790000D01*
X186298877Y-99124272D01*
X186617632Y-98964505D01*
X186927595Y-98173783D01*
X186911367Y-97324634D01*
X186617632Y-96615495D01*
X186298877Y-96455728D01*
X184964605Y-97790000D01*
X184605395Y-97790000D01*
X183271123Y-96455728D01*
X182952368Y-96615495D01*
X182642405Y-97406217D01*
X127167670Y-97406217D01*
X126587608Y-96826155D01*
X125619134Y-96425000D01*
X125284419Y-96425000D01*
X125494577Y-96284577D01*
X125811740Y-95809909D01*
X125923113Y-95250000D01*
X125811740Y-94690091D01*
X125494577Y-94215423D01*
X125142242Y-93980000D01*
X130616887Y-93980000D01*
X130728260Y-94539909D01*
X131045423Y-95014577D01*
X131520091Y-95331740D01*
X131938667Y-95415000D01*
X132221333Y-95415000D01*
X132639909Y-95331740D01*
X133114577Y-95014577D01*
X133431740Y-94539909D01*
X133543113Y-93980000D01*
X133486336Y-93694561D01*
X140805000Y-93694561D01*
X140805000Y-94265439D01*
X141023466Y-94792862D01*
X141427138Y-95196534D01*
X141954561Y-95415000D01*
X142525439Y-95415000D01*
X143052862Y-95196534D01*
X143456534Y-94792862D01*
X143675000Y-94265439D01*
X143675000Y-93694561D01*
X143456534Y-93167138D01*
X143069396Y-92780000D01*
X145872560Y-92780000D01*
X145872560Y-95180000D01*
X145921843Y-95427765D01*
X146062191Y-95637809D01*
X146272235Y-95778157D01*
X146520000Y-95827440D01*
X148120000Y-95827440D01*
X148367765Y-95778157D01*
X148577809Y-95637809D01*
X148718157Y-95427765D01*
X148752127Y-95256984D01*
X148935104Y-95484500D01*
X149428181Y-95754367D01*
X149510961Y-95771904D01*
X149733000Y-95649915D01*
X149733000Y-94107000D01*
X149987000Y-94107000D01*
X149987000Y-95649915D01*
X150209039Y-95771904D01*
X150291819Y-95754367D01*
X150784896Y-95484500D01*
X151130000Y-95055393D01*
X151475104Y-95484500D01*
X151968181Y-95754367D01*
X152050961Y-95771904D01*
X152273000Y-95649915D01*
X152273000Y-94107000D01*
X149987000Y-94107000D01*
X149733000Y-94107000D01*
X149713000Y-94107000D01*
X149713000Y-93853000D01*
X149733000Y-93853000D01*
X149733000Y-92310085D01*
X149987000Y-92310085D01*
X149987000Y-93853000D01*
X152273000Y-93853000D01*
X152273000Y-92310085D01*
X152527000Y-92310085D01*
X152527000Y-93853000D01*
X152547000Y-93853000D01*
X152547000Y-94107000D01*
X152527000Y-94107000D01*
X152527000Y-95649915D01*
X152749039Y-95771904D01*
X152831819Y-95754367D01*
X153324896Y-95484500D01*
X153667501Y-95058501D01*
X153905424Y-95414577D01*
X154380092Y-95731740D01*
X154940000Y-95843113D01*
X155499909Y-95731740D01*
X155974577Y-95414577D01*
X156291740Y-94939909D01*
X156375000Y-94521332D01*
X156375000Y-93694561D01*
X159855000Y-93694561D01*
X159855000Y-94265439D01*
X160073466Y-94792862D01*
X160477138Y-95196534D01*
X161004561Y-95415000D01*
X161575439Y-95415000D01*
X162102862Y-95196534D01*
X162506534Y-94792862D01*
X162725000Y-94265439D01*
X162725000Y-93980000D01*
X169986887Y-93980000D01*
X170098260Y-94539909D01*
X170415423Y-95014577D01*
X170890091Y-95331740D01*
X171308667Y-95415000D01*
X171591333Y-95415000D01*
X172009909Y-95331740D01*
X172132241Y-95250000D01*
X176336887Y-95250000D01*
X176448260Y-95809909D01*
X176765423Y-96284577D01*
X177240091Y-96601740D01*
X177658667Y-96685000D01*
X177941333Y-96685000D01*
X178359909Y-96601740D01*
X178834577Y-96284577D01*
X179151740Y-95809909D01*
X179263113Y-95250000D01*
X179151740Y-94690091D01*
X178834577Y-94215423D01*
X178359909Y-93898260D01*
X177941333Y-93815000D01*
X177658667Y-93815000D01*
X177240091Y-93898260D01*
X176765423Y-94215423D01*
X176448260Y-94690091D01*
X176336887Y-95250000D01*
X172132241Y-95250000D01*
X172484577Y-95014577D01*
X172801740Y-94539909D01*
X172913113Y-93980000D01*
X172828645Y-93555348D01*
X182650130Y-93555348D01*
X182650130Y-94404652D01*
X182975144Y-95189307D01*
X183575693Y-95789856D01*
X183795299Y-95880820D01*
X183610495Y-95957368D01*
X183450728Y-96276123D01*
X184785000Y-97610395D01*
X186119272Y-96276123D01*
X185959505Y-95957368D01*
X185769609Y-95882929D01*
X185994307Y-95789856D01*
X186594856Y-95189307D01*
X186919870Y-94404652D01*
X186919870Y-93555348D01*
X186594856Y-92770693D01*
X185994307Y-92170144D01*
X185209652Y-91845130D01*
X184360348Y-91845130D01*
X183575693Y-92170144D01*
X182975144Y-92770693D01*
X182650130Y-93555348D01*
X172828645Y-93555348D01*
X172801740Y-93420091D01*
X172484577Y-92945423D01*
X172009909Y-92628260D01*
X171591333Y-92545000D01*
X171308667Y-92545000D01*
X170890091Y-92628260D01*
X170415423Y-92945423D01*
X170098260Y-93420091D01*
X169986887Y-93980000D01*
X162725000Y-93980000D01*
X162725000Y-93694561D01*
X162506534Y-93167138D01*
X162102862Y-92763466D01*
X161575439Y-92545000D01*
X161004561Y-92545000D01*
X160477138Y-92763466D01*
X160073466Y-93167138D01*
X159855000Y-93694561D01*
X156375000Y-93694561D01*
X156375000Y-93438667D01*
X156291740Y-93020091D01*
X155974576Y-92545423D01*
X155499908Y-92228260D01*
X154940000Y-92116887D01*
X154380091Y-92228260D01*
X153905423Y-92545424D01*
X153667501Y-92901499D01*
X153324896Y-92475500D01*
X152831819Y-92205633D01*
X152749039Y-92188096D01*
X152527000Y-92310085D01*
X152273000Y-92310085D01*
X152050961Y-92188096D01*
X151968181Y-92205633D01*
X151475104Y-92475500D01*
X151130000Y-92904607D01*
X150784896Y-92475500D01*
X150291819Y-92205633D01*
X150209039Y-92188096D01*
X149987000Y-92310085D01*
X149733000Y-92310085D01*
X149510961Y-92188096D01*
X149428181Y-92205633D01*
X148935104Y-92475500D01*
X148752127Y-92703016D01*
X148718157Y-92532235D01*
X148577809Y-92322191D01*
X148367765Y-92181843D01*
X148120000Y-92132560D01*
X146520000Y-92132560D01*
X146272235Y-92181843D01*
X146062191Y-92322191D01*
X145921843Y-92532235D01*
X145872560Y-92780000D01*
X143069396Y-92780000D01*
X143052862Y-92763466D01*
X142525439Y-92545000D01*
X141954561Y-92545000D01*
X141427138Y-92763466D01*
X141023466Y-93167138D01*
X140805000Y-93694561D01*
X133486336Y-93694561D01*
X133431740Y-93420091D01*
X133114577Y-92945423D01*
X132639909Y-92628260D01*
X132221333Y-92545000D01*
X131938667Y-92545000D01*
X131520091Y-92628260D01*
X131045423Y-92945423D01*
X130728260Y-93420091D01*
X130616887Y-93980000D01*
X125142242Y-93980000D01*
X125019909Y-93898260D01*
X124601333Y-93815000D01*
X124318667Y-93815000D01*
X123900091Y-93898260D01*
X123425423Y-94215423D01*
X123108260Y-94690091D01*
X122996887Y-95250000D01*
X123108260Y-95809909D01*
X123425423Y-96284577D01*
X123900091Y-96601740D01*
X124064990Y-96634541D01*
X123602392Y-96826155D01*
X122861155Y-97567392D01*
X122460000Y-98535866D01*
X120383297Y-98535866D01*
X120554856Y-98364307D01*
X120879870Y-97579652D01*
X120879870Y-96730348D01*
X120554856Y-95945693D01*
X119954307Y-95345144D01*
X119734701Y-95254180D01*
X119919505Y-95177632D01*
X120079272Y-94858877D01*
X118745000Y-93524605D01*
X117410728Y-94858877D01*
X117570495Y-95177632D01*
X117760391Y-95252071D01*
X117535693Y-95345144D01*
X116935144Y-95945693D01*
X116610130Y-96730348D01*
X114427000Y-96730348D01*
X114427000Y-92961217D01*
X116602405Y-92961217D01*
X116618633Y-93810366D01*
X116912368Y-94519505D01*
X117231123Y-94679272D01*
X118565395Y-93345000D01*
X118924605Y-93345000D01*
X120258877Y-94679272D01*
X120577632Y-94519505D01*
X120887595Y-93728783D01*
X120871367Y-92879634D01*
X120577632Y-92170495D01*
X120258877Y-92010728D01*
X118924605Y-93345000D01*
X118565395Y-93345000D01*
X117231123Y-92010728D01*
X116912368Y-92170495D01*
X116602405Y-92961217D01*
X114427000Y-92961217D01*
X114427000Y-91831123D01*
X117410728Y-91831123D01*
X118745000Y-93165395D01*
X120079272Y-91831123D01*
X119919505Y-91512368D01*
X119128783Y-91202405D01*
X118279634Y-91218633D01*
X117570495Y-91512368D01*
X117410728Y-91831123D01*
X114427000Y-91831123D01*
X114427000Y-89185750D01*
X116575000Y-89185750D01*
X116575000Y-89926309D01*
X116671673Y-90159698D01*
X116850301Y-90338327D01*
X117083690Y-90435000D01*
X117824250Y-90435000D01*
X117983000Y-90276250D01*
X117983000Y-89027000D01*
X118237000Y-89027000D01*
X118237000Y-90276250D01*
X118395750Y-90435000D01*
X119136310Y-90435000D01*
X119369699Y-90338327D01*
X119548327Y-90159698D01*
X119645000Y-89926309D01*
X119645000Y-89185750D01*
X183250000Y-89185750D01*
X183250000Y-89926309D01*
X183346673Y-90159698D01*
X183525301Y-90338327D01*
X183758690Y-90435000D01*
X184499250Y-90435000D01*
X184658000Y-90276250D01*
X184658000Y-89027000D01*
X184912000Y-89027000D01*
X184912000Y-90276250D01*
X185070750Y-90435000D01*
X185811310Y-90435000D01*
X186044699Y-90338327D01*
X186223327Y-90159698D01*
X186320000Y-89926309D01*
X186320000Y-89185750D01*
X186161250Y-89027000D01*
X184912000Y-89027000D01*
X184658000Y-89027000D01*
X183408750Y-89027000D01*
X183250000Y-89185750D01*
X119645000Y-89185750D01*
X119486250Y-89027000D01*
X118237000Y-89027000D01*
X117983000Y-89027000D01*
X116733750Y-89027000D01*
X116575000Y-89185750D01*
X114427000Y-89185750D01*
X114427000Y-86054670D01*
X116575000Y-86054670D01*
X116575000Y-86665330D01*
X116808690Y-87229507D01*
X116985044Y-87405861D01*
X116850301Y-87461673D01*
X116671673Y-87640302D01*
X116575000Y-87873691D01*
X116575000Y-88614250D01*
X116733750Y-88773000D01*
X117983000Y-88773000D01*
X117983000Y-88753000D01*
X118237000Y-88753000D01*
X118237000Y-88773000D01*
X119486250Y-88773000D01*
X119645000Y-88614250D01*
X119645000Y-87873691D01*
X119548327Y-87640302D01*
X119369699Y-87461673D01*
X119234956Y-87405861D01*
X119411310Y-87229507D01*
X119645000Y-86665330D01*
X119645000Y-86054670D01*
X119411310Y-85490493D01*
X118979507Y-85058690D01*
X118415330Y-84825000D01*
X117804670Y-84825000D01*
X117240493Y-85058690D01*
X116808690Y-85490493D01*
X116575000Y-86054670D01*
X114427000Y-86054670D01*
X114427000Y-84804561D01*
X123025000Y-84804561D01*
X123025000Y-85375439D01*
X123243466Y-85902862D01*
X123647138Y-86306534D01*
X124174561Y-86525000D01*
X124745439Y-86525000D01*
X125272862Y-86306534D01*
X125676534Y-85902862D01*
X125895000Y-85375439D01*
X125895000Y-84860130D01*
X129932690Y-84860130D01*
X129932690Y-87859870D01*
X129981973Y-88107635D01*
X130122321Y-88317679D01*
X130332365Y-88458027D01*
X130580130Y-88507310D01*
X133579870Y-88507310D01*
X133827635Y-88458027D01*
X134037679Y-88317679D01*
X134178027Y-88107635D01*
X134224523Y-87873877D01*
X134555728Y-87873877D01*
X134715495Y-88192632D01*
X135506217Y-88502595D01*
X136355366Y-88486367D01*
X137064505Y-88192632D01*
X137224272Y-87873877D01*
X135890000Y-86539605D01*
X134555728Y-87873877D01*
X134224523Y-87873877D01*
X134227310Y-87859870D01*
X134227310Y-87619684D01*
X134376123Y-87694272D01*
X135710395Y-86360000D01*
X136069605Y-86360000D01*
X137403877Y-87694272D01*
X137722632Y-87534505D01*
X138032595Y-86743783D01*
X138016367Y-85894634D01*
X137984901Y-85818668D01*
X145885000Y-85818668D01*
X145885000Y-86901333D01*
X145968260Y-87319909D01*
X146285424Y-87794577D01*
X146760092Y-88111740D01*
X147320000Y-88223113D01*
X147879909Y-88111740D01*
X148354577Y-87794577D01*
X148590000Y-87442241D01*
X148825424Y-87794577D01*
X149300092Y-88111740D01*
X149860000Y-88223113D01*
X150419909Y-88111740D01*
X150894577Y-87794577D01*
X151130000Y-87442241D01*
X151365424Y-87794577D01*
X151840092Y-88111740D01*
X152400000Y-88223113D01*
X152959909Y-88111740D01*
X153434577Y-87794577D01*
X153670000Y-87442241D01*
X153905424Y-87794577D01*
X154380092Y-88111740D01*
X154940000Y-88223113D01*
X155499909Y-88111740D01*
X155974577Y-87794577D01*
X156291740Y-87319909D01*
X156375000Y-86901332D01*
X156375000Y-85818667D01*
X156291740Y-85400091D01*
X155974576Y-84925423D01*
X155876859Y-84860130D01*
X161682690Y-84860130D01*
X161682690Y-87859870D01*
X161731973Y-88107635D01*
X161872321Y-88317679D01*
X162082365Y-88458027D01*
X162330130Y-88507310D01*
X165329870Y-88507310D01*
X165577635Y-88458027D01*
X165787679Y-88317679D01*
X165928027Y-88107635D01*
X165977310Y-87859870D01*
X165977310Y-87716473D01*
X166430693Y-88169856D01*
X167215348Y-88494870D01*
X168064652Y-88494870D01*
X168849307Y-88169856D01*
X169449856Y-87569307D01*
X169545000Y-87339609D01*
X169640144Y-87569307D01*
X170240693Y-88169856D01*
X171025348Y-88494870D01*
X171874652Y-88494870D01*
X172659307Y-88169856D01*
X173259856Y-87569307D01*
X173584870Y-86784652D01*
X173584870Y-85935348D01*
X173259856Y-85150693D01*
X172913724Y-84804561D01*
X176365000Y-84804561D01*
X176365000Y-85375439D01*
X176583466Y-85902862D01*
X176987138Y-86306534D01*
X177514561Y-86525000D01*
X178085439Y-86525000D01*
X178612862Y-86306534D01*
X178864726Y-86054670D01*
X183250000Y-86054670D01*
X183250000Y-86665330D01*
X183483690Y-87229507D01*
X183660044Y-87405861D01*
X183525301Y-87461673D01*
X183346673Y-87640302D01*
X183250000Y-87873691D01*
X183250000Y-88614250D01*
X183408750Y-88773000D01*
X184658000Y-88773000D01*
X184658000Y-88753000D01*
X184912000Y-88753000D01*
X184912000Y-88773000D01*
X186161250Y-88773000D01*
X186320000Y-88614250D01*
X186320000Y-87873691D01*
X186223327Y-87640302D01*
X186044699Y-87461673D01*
X185909956Y-87405861D01*
X186086310Y-87229507D01*
X186320000Y-86665330D01*
X186320000Y-86054670D01*
X186086310Y-85490493D01*
X185654507Y-85058690D01*
X185090330Y-84825000D01*
X184479670Y-84825000D01*
X183915493Y-85058690D01*
X183483690Y-85490493D01*
X183250000Y-86054670D01*
X178864726Y-86054670D01*
X179016534Y-85902862D01*
X179235000Y-85375439D01*
X179235000Y-84804561D01*
X179016534Y-84277138D01*
X178612862Y-83873466D01*
X178085439Y-83655000D01*
X177514561Y-83655000D01*
X176987138Y-83873466D01*
X176583466Y-84277138D01*
X176365000Y-84804561D01*
X172913724Y-84804561D01*
X172659307Y-84550144D01*
X171874652Y-84225130D01*
X171025348Y-84225130D01*
X170240693Y-84550144D01*
X169640144Y-85150693D01*
X169545000Y-85380391D01*
X169449856Y-85150693D01*
X168849307Y-84550144D01*
X168064652Y-84225130D01*
X167215348Y-84225130D01*
X166430693Y-84550144D01*
X165977310Y-85003527D01*
X165977310Y-84860130D01*
X165928027Y-84612365D01*
X165787679Y-84402321D01*
X165577635Y-84261973D01*
X165329870Y-84212690D01*
X162330130Y-84212690D01*
X162082365Y-84261973D01*
X161872321Y-84402321D01*
X161731973Y-84612365D01*
X161682690Y-84860130D01*
X155876859Y-84860130D01*
X155499908Y-84608260D01*
X154940000Y-84496887D01*
X154380091Y-84608260D01*
X153905423Y-84925424D01*
X153670000Y-85277759D01*
X153434576Y-84925423D01*
X152959908Y-84608260D01*
X152400000Y-84496887D01*
X151840091Y-84608260D01*
X151365423Y-84925424D01*
X151130000Y-85277759D01*
X150894576Y-84925423D01*
X150419908Y-84608260D01*
X149860000Y-84496887D01*
X149300091Y-84608260D01*
X148825423Y-84925424D01*
X148590000Y-85277759D01*
X148354576Y-84925423D01*
X147879908Y-84608260D01*
X147320000Y-84496887D01*
X146760091Y-84608260D01*
X146285423Y-84925424D01*
X145968260Y-85400092D01*
X145885000Y-85818668D01*
X137984901Y-85818668D01*
X137722632Y-85185495D01*
X137403877Y-85025728D01*
X136069605Y-86360000D01*
X135710395Y-86360000D01*
X134376123Y-85025728D01*
X134227310Y-85100316D01*
X134227310Y-84860130D01*
X134224524Y-84846123D01*
X134555728Y-84846123D01*
X135890000Y-86180395D01*
X137224272Y-84846123D01*
X137064505Y-84527368D01*
X136273783Y-84217405D01*
X135424634Y-84233633D01*
X134715495Y-84527368D01*
X134555728Y-84846123D01*
X134224524Y-84846123D01*
X134178027Y-84612365D01*
X134037679Y-84402321D01*
X133827635Y-84261973D01*
X133579870Y-84212690D01*
X130580130Y-84212690D01*
X130332365Y-84261973D01*
X130122321Y-84402321D01*
X129981973Y-84612365D01*
X129932690Y-84860130D01*
X125895000Y-84860130D01*
X125895000Y-84804561D01*
X125676534Y-84277138D01*
X125272862Y-83873466D01*
X124745439Y-83655000D01*
X124174561Y-83655000D01*
X123647138Y-83873466D01*
X123243466Y-84277138D01*
X123025000Y-84804561D01*
X114427000Y-84804561D01*
X114427000Y-83312000D01*
X189103000Y-83312000D01*
X189103000Y-117983000D01*
G04 #@! TD*
M02*
