G04 #@! TF.GenerationSoftware,KiCad,Pcbnew,(5.0.1-3-g963ef8bb5)*
G04 #@! TF.CreationDate,2019-07-11T22:25:35+01:00*
G04 #@! TF.ProjectId,KatanaSwitch,4B6174616E615377697463682E6B6963,rev?*
G04 #@! TF.SameCoordinates,Original*
G04 #@! TF.FileFunction,Legend,Top*
G04 #@! TF.FilePolarity,Positive*
%FSLAX46Y46*%
G04 Gerber Fmt 4.6, Leading zero omitted, Abs format (unit mm)*
G04 Created by KiCad (PCBNEW (5.0.1-3-g963ef8bb5)) date Thursday, 11 July 2019 at 22:25:35*
%MOMM*%
%LPD*%
G01*
G04 APERTURE LIST*
%ADD10C,0.150000*%
%ADD11C,0.300000*%
%ADD12C,0.120000*%
G04 APERTURE END LIST*
D10*
X167949523Y-89352380D02*
X167616190Y-88876190D01*
X167378095Y-89352380D02*
X167378095Y-88352380D01*
X167759047Y-88352380D01*
X167854285Y-88400000D01*
X167901904Y-88447619D01*
X167949523Y-88542857D01*
X167949523Y-88685714D01*
X167901904Y-88780952D01*
X167854285Y-88828571D01*
X167759047Y-88876190D01*
X167378095Y-88876190D01*
X163544285Y-88352380D02*
X164115714Y-88352380D01*
X163830000Y-89352380D02*
X163830000Y-88352380D01*
D11*
X115427142Y-96785714D02*
X115522380Y-96571428D01*
X115617619Y-96500000D01*
X115808095Y-96428571D01*
X116093809Y-96428571D01*
X116284285Y-96500000D01*
X116379523Y-96571428D01*
X116474761Y-96714285D01*
X116474761Y-97285714D01*
X114474761Y-97285714D01*
X114474761Y-96785714D01*
X114570000Y-96642857D01*
X114665238Y-96571428D01*
X114855714Y-96500000D01*
X115046190Y-96500000D01*
X115236666Y-96571428D01*
X115331904Y-96642857D01*
X115427142Y-96785714D01*
X115427142Y-97285714D01*
X115712857Y-95785714D02*
X115712857Y-94642857D01*
X116474761Y-93142857D02*
X116474761Y-94000000D01*
X116474761Y-93571428D02*
X114474761Y-93571428D01*
X114760476Y-93714285D01*
X114950952Y-93857142D01*
X115046190Y-94000000D01*
X187817142Y-96785714D02*
X187912380Y-96571428D01*
X188007619Y-96500000D01*
X188198095Y-96428571D01*
X188483809Y-96428571D01*
X188674285Y-96500000D01*
X188769523Y-96571428D01*
X188864761Y-96714285D01*
X188864761Y-97285714D01*
X186864761Y-97285714D01*
X186864761Y-96785714D01*
X186960000Y-96642857D01*
X187055238Y-96571428D01*
X187245714Y-96500000D01*
X187436190Y-96500000D01*
X187626666Y-96571428D01*
X187721904Y-96642857D01*
X187817142Y-96785714D01*
X187817142Y-97285714D01*
X188102857Y-95785714D02*
X188102857Y-94642857D01*
X187055238Y-94000000D02*
X186960000Y-93928571D01*
X186864761Y-93785714D01*
X186864761Y-93428571D01*
X186960000Y-93285714D01*
X187055238Y-93214285D01*
X187245714Y-93142857D01*
X187436190Y-93142857D01*
X187721904Y-93214285D01*
X188864761Y-94071428D01*
X188864761Y-93142857D01*
X188293333Y-115665000D02*
X188293333Y-114950714D01*
X188864761Y-115807857D02*
X186864761Y-115307857D01*
X188864761Y-114807857D01*
X188102857Y-114307857D02*
X188102857Y-113165000D01*
X187055238Y-112522142D02*
X186960000Y-112450714D01*
X186864761Y-112307857D01*
X186864761Y-111950714D01*
X186960000Y-111807857D01*
X187055238Y-111736428D01*
X187245714Y-111665000D01*
X187436190Y-111665000D01*
X187721904Y-111736428D01*
X188864761Y-112593571D01*
X188864761Y-111665000D01*
X115903333Y-115665000D02*
X115903333Y-114950714D01*
X116474761Y-115807857D02*
X114474761Y-115307857D01*
X116474761Y-114807857D01*
X115712857Y-114307857D02*
X115712857Y-113165000D01*
X116474761Y-111665000D02*
X116474761Y-112522142D01*
X116474761Y-112093571D02*
X114474761Y-112093571D01*
X114760476Y-112236428D01*
X114950952Y-112379285D01*
X115046190Y-112522142D01*
D10*
X171164285Y-89304761D02*
X171307142Y-89352380D01*
X171545238Y-89352380D01*
X171640476Y-89304761D01*
X171688095Y-89257142D01*
X171735714Y-89161904D01*
X171735714Y-89066666D01*
X171688095Y-88971428D01*
X171640476Y-88923809D01*
X171545238Y-88876190D01*
X171354761Y-88828571D01*
X171259523Y-88780952D01*
X171211904Y-88733333D01*
X171164285Y-88638095D01*
X171164285Y-88542857D01*
X171211904Y-88447619D01*
X171259523Y-88400000D01*
X171354761Y-88352380D01*
X171592857Y-88352380D01*
X171735714Y-88400000D01*
X135128095Y-89035000D02*
X135032857Y-88987380D01*
X134890000Y-88987380D01*
X134747142Y-89035000D01*
X134651904Y-89130238D01*
X134604285Y-89225476D01*
X134556666Y-89415952D01*
X134556666Y-89558809D01*
X134604285Y-89749285D01*
X134651904Y-89844523D01*
X134747142Y-89939761D01*
X134890000Y-89987380D01*
X134985238Y-89987380D01*
X135128095Y-89939761D01*
X135175714Y-89892142D01*
X135175714Y-89558809D01*
X134985238Y-89558809D01*
X135604285Y-89987380D02*
X135604285Y-88987380D01*
X136175714Y-89987380D01*
X136175714Y-88987380D01*
X136651904Y-89987380D02*
X136651904Y-88987380D01*
X136890000Y-88987380D01*
X137032857Y-89035000D01*
X137128095Y-89130238D01*
X137175714Y-89225476D01*
X137223333Y-89415952D01*
X137223333Y-89558809D01*
X137175714Y-89749285D01*
X137128095Y-89844523D01*
X137032857Y-89939761D01*
X136890000Y-89987380D01*
X136651904Y-89987380D01*
X131460952Y-89987380D02*
X131651428Y-89987380D01*
X131746666Y-89939761D01*
X131794285Y-89892142D01*
X131889523Y-89749285D01*
X131937142Y-89558809D01*
X131937142Y-89177857D01*
X131889523Y-89082619D01*
X131841904Y-89035000D01*
X131746666Y-88987380D01*
X131556190Y-88987380D01*
X131460952Y-89035000D01*
X131413333Y-89082619D01*
X131365714Y-89177857D01*
X131365714Y-89415952D01*
X131413333Y-89511190D01*
X131460952Y-89558809D01*
X131556190Y-89606428D01*
X131746666Y-89606428D01*
X131841904Y-89558809D01*
X131889523Y-89511190D01*
X131937142Y-89415952D01*
X132222857Y-88987380D02*
X132556190Y-89987380D01*
X132889523Y-88987380D01*
D12*
G04 #@! TO.C,A1*
X133985000Y-114300000D02*
X131445000Y-114300000D01*
X131445000Y-114300000D02*
X131445000Y-116970000D01*
X133985000Y-116970000D02*
X172215000Y-116970000D01*
X128775000Y-116970000D02*
X131445000Y-116970000D01*
X131445000Y-101600000D02*
X131445000Y-98930000D01*
X131445000Y-101600000D02*
X169545000Y-101600000D01*
X169545000Y-101600000D02*
X169545000Y-98930000D01*
X133985000Y-114300000D02*
X133985000Y-116970000D01*
X133985000Y-114300000D02*
X169545000Y-114300000D01*
X169545000Y-114300000D02*
X169545000Y-116970000D01*
X172215000Y-116970000D02*
X172215000Y-98930000D01*
X172215000Y-98930000D02*
X128775000Y-98930000D01*
X128775000Y-98930000D02*
X128775000Y-116970000D01*
G04 #@! TO.C,U1*
X145990000Y-89170000D02*
G75*
G02X145990000Y-91170000I0J-1000000D01*
G01*
X145990000Y-91170000D02*
X145990000Y-92420000D01*
X145990000Y-92420000D02*
X156270000Y-92420000D01*
X156270000Y-92420000D02*
X156270000Y-87920000D01*
X156270000Y-87920000D02*
X145990000Y-87920000D01*
X145990000Y-87920000D02*
X145990000Y-89170000D01*
X145930000Y-95420000D02*
X156330000Y-95420000D01*
X156330000Y-95420000D02*
X156330000Y-84920000D01*
X156330000Y-84920000D02*
X145930000Y-84920000D01*
X145930000Y-84920000D02*
X145930000Y-95420000D01*
G04 #@! TO.C,D1*
X118110462Y-102420000D02*
G75*
G03X116565170Y-107970000I-462J-2990000D01*
G01*
X118109538Y-102420000D02*
G75*
G02X119654830Y-107970000I462J-2990000D01*
G01*
X120610000Y-105410000D02*
G75*
G03X120610000Y-105410000I-2500000J0D01*
G01*
X116565000Y-107970000D02*
X119655000Y-107970000D01*
G04 #@! TO.C,D2*
X184785462Y-102420000D02*
G75*
G03X183240170Y-107970000I-462J-2990000D01*
G01*
X184784538Y-102420000D02*
G75*
G02X186329830Y-107970000I462J-2990000D01*
G01*
X187285000Y-105410000D02*
G75*
G03X187285000Y-105410000I-2500000J0D01*
G01*
X183240000Y-107970000D02*
X186330000Y-107970000D01*
G04 #@! TO.C,D3*
X116565000Y-90190000D02*
X119655000Y-90190000D01*
X120610000Y-87630000D02*
G75*
G03X120610000Y-87630000I-2500000J0D01*
G01*
X118109538Y-84640000D02*
G75*
G02X119654830Y-90190000I462J-2990000D01*
G01*
X118110462Y-84640000D02*
G75*
G03X116565170Y-90190000I-462J-2990000D01*
G01*
G04 #@! TO.C,D4*
X183240000Y-90190000D02*
X186330000Y-90190000D01*
X187285000Y-87630000D02*
G75*
G03X187285000Y-87630000I-2500000J0D01*
G01*
X184784538Y-84640000D02*
G75*
G02X186329830Y-90190000I462J-2990000D01*
G01*
X184785462Y-84640000D02*
G75*
G03X183240170Y-90190000I-462J-2990000D01*
G01*
G04 #@! TO.C,R1*
X125830000Y-107220000D02*
X123090000Y-107220000D01*
X123090000Y-107220000D02*
X123090000Y-113760000D01*
X123090000Y-113760000D02*
X125830000Y-113760000D01*
X125830000Y-113760000D02*
X125830000Y-107220000D01*
X124460000Y-106450000D02*
X124460000Y-107220000D01*
X124460000Y-114530000D02*
X124460000Y-113760000D01*
G04 #@! TO.C,R2*
X177800000Y-114530000D02*
X177800000Y-113760000D01*
X177800000Y-106450000D02*
X177800000Y-107220000D01*
X179170000Y-113760000D02*
X179170000Y-107220000D01*
X176430000Y-113760000D02*
X179170000Y-113760000D01*
X176430000Y-107220000D02*
X176430000Y-113760000D01*
X179170000Y-107220000D02*
X176430000Y-107220000D01*
G04 #@! TO.C,R3*
X124460000Y-94210000D02*
X124460000Y-93440000D01*
X124460000Y-86130000D02*
X124460000Y-86900000D01*
X125830000Y-93440000D02*
X125830000Y-86900000D01*
X123090000Y-93440000D02*
X125830000Y-93440000D01*
X123090000Y-86900000D02*
X123090000Y-93440000D01*
X125830000Y-86900000D02*
X123090000Y-86900000D01*
G04 #@! TO.C,R4*
X179170000Y-86900000D02*
X176430000Y-86900000D01*
X176430000Y-86900000D02*
X176430000Y-93440000D01*
X176430000Y-93440000D02*
X179170000Y-93440000D01*
X179170000Y-93440000D02*
X179170000Y-86900000D01*
X177800000Y-86130000D02*
X177800000Y-86900000D01*
X177800000Y-94210000D02*
X177800000Y-93440000D01*
G04 #@! TO.C,R5*
X163100000Y-92610000D02*
X163100000Y-95350000D01*
X163100000Y-95350000D02*
X169640000Y-95350000D01*
X169640000Y-95350000D02*
X169640000Y-92610000D01*
X169640000Y-92610000D02*
X163100000Y-92610000D01*
X162330000Y-93980000D02*
X163100000Y-93980000D01*
X170410000Y-93980000D02*
X169640000Y-93980000D01*
G04 #@! TO.C,R6*
X133120000Y-93980000D02*
X133890000Y-93980000D01*
X141200000Y-93980000D02*
X140430000Y-93980000D01*
X133890000Y-95350000D02*
X140430000Y-95350000D01*
X133890000Y-92610000D02*
X133890000Y-95350000D01*
X140430000Y-92610000D02*
X133890000Y-92610000D01*
X140430000Y-95350000D02*
X140430000Y-92610000D01*
G04 #@! TO.C,U1*
D10*
X150582380Y-90931904D02*
X151391904Y-90931904D01*
X151487142Y-90884285D01*
X151534761Y-90836666D01*
X151582380Y-90741428D01*
X151582380Y-90550952D01*
X151534761Y-90455714D01*
X151487142Y-90408095D01*
X151391904Y-90360476D01*
X150582380Y-90360476D01*
X151582380Y-89360476D02*
X151582380Y-89931904D01*
X151582380Y-89646190D02*
X150582380Y-89646190D01*
X150725238Y-89741428D01*
X150820476Y-89836666D01*
X150868095Y-89931904D01*
G04 #@! TO.C,R1*
X127282380Y-110656666D02*
X126806190Y-110990000D01*
X127282380Y-111228095D02*
X126282380Y-111228095D01*
X126282380Y-110847142D01*
X126330000Y-110751904D01*
X126377619Y-110704285D01*
X126472857Y-110656666D01*
X126615714Y-110656666D01*
X126710952Y-110704285D01*
X126758571Y-110751904D01*
X126806190Y-110847142D01*
X126806190Y-111228095D01*
X127282380Y-109704285D02*
X127282380Y-110275714D01*
X127282380Y-109990000D02*
X126282380Y-109990000D01*
X126425238Y-110085238D01*
X126520476Y-110180476D01*
X126568095Y-110275714D01*
G04 #@! TO.C,R2*
X180622380Y-110656666D02*
X180146190Y-110990000D01*
X180622380Y-111228095D02*
X179622380Y-111228095D01*
X179622380Y-110847142D01*
X179670000Y-110751904D01*
X179717619Y-110704285D01*
X179812857Y-110656666D01*
X179955714Y-110656666D01*
X180050952Y-110704285D01*
X180098571Y-110751904D01*
X180146190Y-110847142D01*
X180146190Y-111228095D01*
X179717619Y-110275714D02*
X179670000Y-110228095D01*
X179622380Y-110132857D01*
X179622380Y-109894761D01*
X179670000Y-109799523D01*
X179717619Y-109751904D01*
X179812857Y-109704285D01*
X179908095Y-109704285D01*
X180050952Y-109751904D01*
X180622380Y-110323333D01*
X180622380Y-109704285D01*
G04 #@! TO.C,R3*
X127282380Y-90336666D02*
X126806190Y-90670000D01*
X127282380Y-90908095D02*
X126282380Y-90908095D01*
X126282380Y-90527142D01*
X126330000Y-90431904D01*
X126377619Y-90384285D01*
X126472857Y-90336666D01*
X126615714Y-90336666D01*
X126710952Y-90384285D01*
X126758571Y-90431904D01*
X126806190Y-90527142D01*
X126806190Y-90908095D01*
X126282380Y-90003333D02*
X126282380Y-89384285D01*
X126663333Y-89717619D01*
X126663333Y-89574761D01*
X126710952Y-89479523D01*
X126758571Y-89431904D01*
X126853809Y-89384285D01*
X127091904Y-89384285D01*
X127187142Y-89431904D01*
X127234761Y-89479523D01*
X127282380Y-89574761D01*
X127282380Y-89860476D01*
X127234761Y-89955714D01*
X127187142Y-90003333D01*
G04 #@! TO.C,R4*
X180622380Y-90336666D02*
X180146190Y-90670000D01*
X180622380Y-90908095D02*
X179622380Y-90908095D01*
X179622380Y-90527142D01*
X179670000Y-90431904D01*
X179717619Y-90384285D01*
X179812857Y-90336666D01*
X179955714Y-90336666D01*
X180050952Y-90384285D01*
X180098571Y-90431904D01*
X180146190Y-90527142D01*
X180146190Y-90908095D01*
X179955714Y-89479523D02*
X180622380Y-89479523D01*
X179574761Y-89717619D02*
X180289047Y-89955714D01*
X180289047Y-89336666D01*
G04 #@! TO.C,R5*
X166203333Y-96972380D02*
X165870000Y-96496190D01*
X165631904Y-96972380D02*
X165631904Y-95972380D01*
X166012857Y-95972380D01*
X166108095Y-96020000D01*
X166155714Y-96067619D01*
X166203333Y-96162857D01*
X166203333Y-96305714D01*
X166155714Y-96400952D01*
X166108095Y-96448571D01*
X166012857Y-96496190D01*
X165631904Y-96496190D01*
X167108095Y-95972380D02*
X166631904Y-95972380D01*
X166584285Y-96448571D01*
X166631904Y-96400952D01*
X166727142Y-96353333D01*
X166965238Y-96353333D01*
X167060476Y-96400952D01*
X167108095Y-96448571D01*
X167155714Y-96543809D01*
X167155714Y-96781904D01*
X167108095Y-96877142D01*
X167060476Y-96924761D01*
X166965238Y-96972380D01*
X166727142Y-96972380D01*
X166631904Y-96924761D01*
X166584285Y-96877142D01*
G04 #@! TO.C,R6*
X136993333Y-96802380D02*
X136660000Y-96326190D01*
X136421904Y-96802380D02*
X136421904Y-95802380D01*
X136802857Y-95802380D01*
X136898095Y-95850000D01*
X136945714Y-95897619D01*
X136993333Y-95992857D01*
X136993333Y-96135714D01*
X136945714Y-96230952D01*
X136898095Y-96278571D01*
X136802857Y-96326190D01*
X136421904Y-96326190D01*
X137850476Y-95802380D02*
X137660000Y-95802380D01*
X137564761Y-95850000D01*
X137517142Y-95897619D01*
X137421904Y-96040476D01*
X137374285Y-96230952D01*
X137374285Y-96611904D01*
X137421904Y-96707142D01*
X137469523Y-96754761D01*
X137564761Y-96802380D01*
X137755238Y-96802380D01*
X137850476Y-96754761D01*
X137898095Y-96707142D01*
X137945714Y-96611904D01*
X137945714Y-96373809D01*
X137898095Y-96278571D01*
X137850476Y-96230952D01*
X137755238Y-96183333D01*
X137564761Y-96183333D01*
X137469523Y-96230952D01*
X137421904Y-96278571D01*
X137374285Y-96373809D01*
G04 #@! TD*
M02*
