M48
;DRILL file {KiCad (5.0.1-3-g963ef8bb5)} date Thursday, 11 July 2019 at 22:25:40
;FORMAT={-:-/ absolute / inch / decimal}
FMAT,2
INCH,TZ
T1C0.0315
T2C0.0354
T3C0.0472
T4C0.1260
%
G90
G05
M72
T1
X5.8Y-3.4
X5.8Y-3.7
X5.9Y-3.4
X5.9Y-3.7
X6.Y-3.4
X6.Y-3.7
X6.1Y-3.4
X6.1Y-3.7
X7.Y-3.35
X7.Y-3.75
X4.9Y-4.15
X4.9Y-4.55
X5.2Y-3.7
X5.6Y-3.7
X4.9Y-3.35
X4.9Y-3.75
X5.225Y-3.95
X5.225Y-4.55
X5.325Y-3.95
X5.325Y-4.55
X5.425Y-3.95
X5.425Y-4.55
X5.525Y-3.95
X5.525Y-4.55
X5.625Y-3.95
X5.625Y-4.55
X5.725Y-3.95
X5.725Y-4.55
X5.825Y-3.95
X5.825Y-4.55
X5.925Y-3.95
X5.925Y-4.55
X6.025Y-3.95
X6.025Y-4.55
X6.125Y-3.95
X6.125Y-4.55
X6.225Y-3.95
X6.225Y-4.55
X6.325Y-3.95
X6.325Y-4.55
X6.425Y-3.95
X6.425Y-4.55
X6.525Y-3.95
X6.525Y-4.55
X6.625Y-3.95
X6.625Y-4.55
X6.35Y-3.7
X6.75Y-3.7
X7.Y-4.15
X7.Y-4.55
T2
X7.275Y-4.1
X7.275Y-4.2
X4.65Y-4.1
X4.65Y-4.2
X4.65Y-3.4
X4.65Y-3.5
X7.275Y-3.4
X7.275Y-3.5
T3
X7.275Y-4.4
X7.275Y-4.55
X4.675Y-3.675
X4.675Y-3.825
X7.275Y-3.7
X7.275Y-3.85
X4.675Y-4.4
X4.675Y-4.55
X5.2Y-3.4
X5.35Y-3.4
X6.45Y-3.4
X6.6Y-3.4
X6.75Y-3.4
T4
X7.025Y-3.95
X4.925Y-3.9
T0
M30
