G04 #@! TF.GenerationSoftware,KiCad,Pcbnew,(5.0.1-3-g963ef8bb5)*
G04 #@! TF.CreationDate,2019-07-11T22:25:35+01:00*
G04 #@! TF.ProjectId,KatanaSwitch,4B6174616E615377697463682E6B6963,rev?*
G04 #@! TF.SameCoordinates,Original*
G04 #@! TF.FileFunction,Legend,Bot*
G04 #@! TF.FilePolarity,Positive*
%FSLAX46Y46*%
G04 Gerber Fmt 4.6, Leading zero omitted, Abs format (unit mm)*
G04 Created by KiCad (PCBNEW (5.0.1-3-g963ef8bb5)) date Thursday, 11 July 2019 at 22:25:35*
%MOMM*%
%LPD*%
G01*
G04 APERTURE LIST*
%ADD10C,0.150000*%
G04 APERTURE END LIST*
D10*
X155874404Y-106752380D02*
X155874404Y-105752380D01*
X155302976Y-106752380D02*
X155731547Y-106180952D01*
X155302976Y-105752380D02*
X155874404Y-106323809D01*
X154445833Y-106752380D02*
X154445833Y-106228571D01*
X154493452Y-106133333D01*
X154588690Y-106085714D01*
X154779166Y-106085714D01*
X154874404Y-106133333D01*
X154445833Y-106704761D02*
X154541071Y-106752380D01*
X154779166Y-106752380D01*
X154874404Y-106704761D01*
X154922023Y-106609523D01*
X154922023Y-106514285D01*
X154874404Y-106419047D01*
X154779166Y-106371428D01*
X154541071Y-106371428D01*
X154445833Y-106323809D01*
X154112500Y-106085714D02*
X153731547Y-106085714D01*
X153969642Y-105752380D02*
X153969642Y-106609523D01*
X153922023Y-106704761D01*
X153826785Y-106752380D01*
X153731547Y-106752380D01*
X152969642Y-106752380D02*
X152969642Y-106228571D01*
X153017261Y-106133333D01*
X153112500Y-106085714D01*
X153302976Y-106085714D01*
X153398214Y-106133333D01*
X152969642Y-106704761D02*
X153064880Y-106752380D01*
X153302976Y-106752380D01*
X153398214Y-106704761D01*
X153445833Y-106609523D01*
X153445833Y-106514285D01*
X153398214Y-106419047D01*
X153302976Y-106371428D01*
X153064880Y-106371428D01*
X152969642Y-106323809D01*
X152493452Y-106085714D02*
X152493452Y-106752380D01*
X152493452Y-106180952D02*
X152445833Y-106133333D01*
X152350595Y-106085714D01*
X152207738Y-106085714D01*
X152112500Y-106133333D01*
X152064880Y-106228571D01*
X152064880Y-106752380D01*
X151160119Y-106752380D02*
X151160119Y-106228571D01*
X151207738Y-106133333D01*
X151302976Y-106085714D01*
X151493452Y-106085714D01*
X151588690Y-106133333D01*
X151160119Y-106704761D02*
X151255357Y-106752380D01*
X151493452Y-106752380D01*
X151588690Y-106704761D01*
X151636309Y-106609523D01*
X151636309Y-106514285D01*
X151588690Y-106419047D01*
X151493452Y-106371428D01*
X151255357Y-106371428D01*
X151160119Y-106323809D01*
X149445833Y-105752380D02*
X149922023Y-105752380D01*
X149969642Y-106228571D01*
X149922023Y-106180952D01*
X149826785Y-106133333D01*
X149588690Y-106133333D01*
X149493452Y-106180952D01*
X149445833Y-106228571D01*
X149398214Y-106323809D01*
X149398214Y-106561904D01*
X149445833Y-106657142D01*
X149493452Y-106704761D01*
X149588690Y-106752380D01*
X149826785Y-106752380D01*
X149922023Y-106704761D01*
X149969642Y-106657142D01*
X148779166Y-105752380D02*
X148683928Y-105752380D01*
X148588690Y-105800000D01*
X148541071Y-105847619D01*
X148493452Y-105942857D01*
X148445833Y-106133333D01*
X148445833Y-106371428D01*
X148493452Y-106561904D01*
X148541071Y-106657142D01*
X148588690Y-106704761D01*
X148683928Y-106752380D01*
X148779166Y-106752380D01*
X148874404Y-106704761D01*
X148922023Y-106657142D01*
X148969642Y-106561904D01*
X149017261Y-106371428D01*
X149017261Y-106133333D01*
X148969642Y-105942857D01*
X148922023Y-105847619D01*
X148874404Y-105800000D01*
X148779166Y-105752380D01*
X146683928Y-106657142D02*
X146731547Y-106704761D01*
X146874404Y-106752380D01*
X146969642Y-106752380D01*
X147112500Y-106704761D01*
X147207738Y-106609523D01*
X147255357Y-106514285D01*
X147302976Y-106323809D01*
X147302976Y-106180952D01*
X147255357Y-105990476D01*
X147207738Y-105895238D01*
X147112500Y-105800000D01*
X146969642Y-105752380D01*
X146874404Y-105752380D01*
X146731547Y-105800000D01*
X146683928Y-105847619D01*
X146112500Y-106752380D02*
X146207738Y-106704761D01*
X146255357Y-106657142D01*
X146302976Y-106561904D01*
X146302976Y-106276190D01*
X146255357Y-106180952D01*
X146207738Y-106133333D01*
X146112500Y-106085714D01*
X145969642Y-106085714D01*
X145874404Y-106133333D01*
X145826785Y-106180952D01*
X145779166Y-106276190D01*
X145779166Y-106561904D01*
X145826785Y-106657142D01*
X145874404Y-106704761D01*
X145969642Y-106752380D01*
X146112500Y-106752380D01*
X145350595Y-106085714D02*
X145350595Y-106752380D01*
X145350595Y-106180952D02*
X145302976Y-106133333D01*
X145207738Y-106085714D01*
X145064880Y-106085714D01*
X144969642Y-106133333D01*
X144922023Y-106228571D01*
X144922023Y-106752380D01*
X144588690Y-106085714D02*
X144207738Y-106085714D01*
X144445833Y-105752380D02*
X144445833Y-106609523D01*
X144398214Y-106704761D01*
X144302976Y-106752380D01*
X144207738Y-106752380D01*
X143874404Y-106752380D02*
X143874404Y-106085714D01*
X143874404Y-106276190D02*
X143826785Y-106180952D01*
X143779166Y-106133333D01*
X143683928Y-106085714D01*
X143588690Y-106085714D01*
X143112500Y-106752380D02*
X143207738Y-106704761D01*
X143255357Y-106657142D01*
X143302976Y-106561904D01*
X143302976Y-106276190D01*
X143255357Y-106180952D01*
X143207738Y-106133333D01*
X143112500Y-106085714D01*
X142969642Y-106085714D01*
X142874404Y-106133333D01*
X142826785Y-106180952D01*
X142779166Y-106276190D01*
X142779166Y-106561904D01*
X142826785Y-106657142D01*
X142874404Y-106704761D01*
X142969642Y-106752380D01*
X143112500Y-106752380D01*
X142207738Y-106752380D02*
X142302976Y-106704761D01*
X142350595Y-106609523D01*
X142350595Y-105752380D01*
X155874404Y-108402380D02*
X155874404Y-107735714D01*
X155874404Y-107926190D02*
X155826785Y-107830952D01*
X155779166Y-107783333D01*
X155683928Y-107735714D01*
X155588690Y-107735714D01*
X154874404Y-108354761D02*
X154969642Y-108402380D01*
X155160119Y-108402380D01*
X155255357Y-108354761D01*
X155302976Y-108259523D01*
X155302976Y-107878571D01*
X155255357Y-107783333D01*
X155160119Y-107735714D01*
X154969642Y-107735714D01*
X154874404Y-107783333D01*
X154826785Y-107878571D01*
X154826785Y-107973809D01*
X155302976Y-108069047D01*
X154493452Y-107735714D02*
X154255357Y-108402380D01*
X154017261Y-107735714D01*
X152350595Y-108402380D02*
X152922023Y-108402380D01*
X152636309Y-108402380D02*
X152636309Y-107402380D01*
X152731547Y-107545238D01*
X152826785Y-107640476D01*
X152922023Y-107688095D01*
X151922023Y-108307142D02*
X151874404Y-108354761D01*
X151922023Y-108402380D01*
X151969642Y-108354761D01*
X151922023Y-108307142D01*
X151922023Y-108402380D01*
X151255357Y-107402380D02*
X151160119Y-107402380D01*
X151064880Y-107450000D01*
X151017261Y-107497619D01*
X150969642Y-107592857D01*
X150922023Y-107783333D01*
X150922023Y-108021428D01*
X150969642Y-108211904D01*
X151017261Y-108307142D01*
X151064880Y-108354761D01*
X151160119Y-108402380D01*
X151255357Y-108402380D01*
X151350595Y-108354761D01*
X151398214Y-108307142D01*
X151445833Y-108211904D01*
X151493452Y-108021428D01*
X151493452Y-107783333D01*
X151445833Y-107592857D01*
X151398214Y-107497619D01*
X151350595Y-107450000D01*
X151255357Y-107402380D01*
X155445833Y-110004761D02*
X155541071Y-110052380D01*
X155731547Y-110052380D01*
X155826785Y-110004761D01*
X155874404Y-109957142D01*
X155922023Y-109861904D01*
X155922023Y-109576190D01*
X155874404Y-109480952D01*
X155826785Y-109433333D01*
X155731547Y-109385714D01*
X155541071Y-109385714D01*
X155445833Y-109433333D01*
X155017261Y-109385714D02*
X155017261Y-110385714D01*
X155017261Y-109433333D02*
X154922023Y-109385714D01*
X154731547Y-109385714D01*
X154636309Y-109433333D01*
X154588690Y-109480952D01*
X154541071Y-109576190D01*
X154541071Y-109861904D01*
X154588690Y-109957142D01*
X154636309Y-110004761D01*
X154731547Y-110052380D01*
X154922023Y-110052380D01*
X155017261Y-110004761D01*
X153731547Y-110004761D02*
X153826785Y-110052380D01*
X154017261Y-110052380D01*
X154112500Y-110004761D01*
X154160119Y-109909523D01*
X154160119Y-109528571D01*
X154112500Y-109433333D01*
X154017261Y-109385714D01*
X153826785Y-109385714D01*
X153731547Y-109433333D01*
X153683928Y-109528571D01*
X153683928Y-109623809D01*
X154160119Y-109719047D01*
X152826785Y-110052380D02*
X152826785Y-109528571D01*
X152874404Y-109433333D01*
X152969642Y-109385714D01*
X153160119Y-109385714D01*
X153255357Y-109433333D01*
X152826785Y-110004761D02*
X152922023Y-110052380D01*
X153160119Y-110052380D01*
X153255357Y-110004761D01*
X153302976Y-109909523D01*
X153302976Y-109814285D01*
X153255357Y-109719047D01*
X153160119Y-109671428D01*
X152922023Y-109671428D01*
X152826785Y-109623809D01*
X152350595Y-110052380D02*
X152350595Y-109385714D01*
X152350595Y-109576190D02*
X152302976Y-109480952D01*
X152255357Y-109433333D01*
X152160119Y-109385714D01*
X152064880Y-109385714D01*
X151779166Y-110004761D02*
X151683928Y-110052380D01*
X151493452Y-110052380D01*
X151398214Y-110004761D01*
X151350595Y-109909523D01*
X151350595Y-109861904D01*
X151398214Y-109766666D01*
X151493452Y-109719047D01*
X151636309Y-109719047D01*
X151731547Y-109671428D01*
X151779166Y-109576190D01*
X151779166Y-109528571D01*
X151731547Y-109433333D01*
X151636309Y-109385714D01*
X151493452Y-109385714D01*
X151398214Y-109433333D01*
X150779166Y-110052380D02*
X150874404Y-110004761D01*
X150922023Y-109957142D01*
X150969642Y-109861904D01*
X150969642Y-109576190D01*
X150922023Y-109480952D01*
X150874404Y-109433333D01*
X150779166Y-109385714D01*
X150636309Y-109385714D01*
X150541071Y-109433333D01*
X150493452Y-109480952D01*
X150445833Y-109576190D01*
X150445833Y-109861904D01*
X150493452Y-109957142D01*
X150541071Y-110004761D01*
X150636309Y-110052380D01*
X150779166Y-110052380D01*
X150017261Y-109385714D02*
X150017261Y-110052380D01*
X150017261Y-109480952D02*
X149969642Y-109433333D01*
X149874404Y-109385714D01*
X149731547Y-109385714D01*
X149636309Y-109433333D01*
X149588690Y-109528571D01*
X149588690Y-110052380D01*
X149112500Y-109957142D02*
X149064880Y-110004761D01*
X149112500Y-110052380D01*
X149160119Y-110004761D01*
X149112500Y-109957142D01*
X149112500Y-110052380D01*
X148636309Y-110052380D02*
X148636309Y-109385714D01*
X148636309Y-109480952D02*
X148588690Y-109433333D01*
X148493452Y-109385714D01*
X148350595Y-109385714D01*
X148255357Y-109433333D01*
X148207738Y-109528571D01*
X148207738Y-110052380D01*
X148207738Y-109528571D02*
X148160119Y-109433333D01*
X148064880Y-109385714D01*
X147922023Y-109385714D01*
X147826785Y-109433333D01*
X147779166Y-109528571D01*
X147779166Y-110052380D01*
X146922023Y-110004761D02*
X147017261Y-110052380D01*
X147207738Y-110052380D01*
X147302976Y-110004761D01*
X147350595Y-109909523D01*
X147350595Y-109528571D01*
X147302976Y-109433333D01*
X147207738Y-109385714D01*
X147017261Y-109385714D01*
X146922023Y-109433333D01*
X146874404Y-109528571D01*
X146874404Y-109623809D01*
X147350595Y-109719047D01*
X146445833Y-109957142D02*
X146398214Y-110004761D01*
X146445833Y-110052380D01*
X146493452Y-110004761D01*
X146445833Y-109957142D01*
X146445833Y-110052380D01*
X145541071Y-109385714D02*
X145541071Y-110052380D01*
X145969642Y-109385714D02*
X145969642Y-109909523D01*
X145922023Y-110004761D01*
X145826785Y-110052380D01*
X145683928Y-110052380D01*
X145588690Y-110004761D01*
X145541071Y-109957142D01*
X145064880Y-110052380D02*
X145064880Y-109052380D01*
X144969642Y-109671428D02*
X144683928Y-110052380D01*
X144683928Y-109385714D02*
X145064880Y-109766666D01*
M02*
